<?xml version="1.0" encoding="utf-8"?>
<!-- Generator: Adobe Illustrator 15.0.0, SVG Export Plug-In . SVG Version: 6.00 Build 0)  -->
<!DOCTYPE svg PUBLIC "-//W3C//DTD SVG 1.1//EN" "http://www.w3.org/Graphics/SVG/1.1/DTD/svg11.dtd">
<svg version="1.1" id="图层_1" xmlns="http://www.w3.org/2000/svg" xmlns:xlink="http://www.w3.org/1999/xlink" x="0px" y="0px"
	 width="699.96px" height="791.76px" viewBox="0 0 699.96 791.76" enable-background="new 0 0 699.96 791.76" xml:space="preserve">
<g>
	<defs>
		<rect id="SVGID_1_" width="699.96" height="791.76"/>
	</defs>
	<clipPath id="SVGID_2_">
		<use xlink:href="#SVGID_1_"  overflow="visible"/>
	</clipPath>
	<path clip-path="url(#SVGID_2_)" fill="#FFFFFF" d="M568.727,276.001H230.02c-8.805,0-15.946-7.137-15.946-15.941
		c0-8.805,7.141-15.942,15.946-15.942h338.707c8.805,0,15.941,7.137,15.941,15.942C584.668,268.864,577.531,276.001,568.727,276.001
		 M524.547,423.267H230.02c-8.805,0-15.946-7.137-15.946-15.941s7.141-15.941,15.946-15.941h294.527
		c8.805,0,15.941,7.137,15.941,15.941S533.352,423.267,524.547,423.267 M436.188,570.532H230.02
		c-8.805,0-15.946-7.137-15.946-15.941s7.141-15.942,15.946-15.942h206.167c8.805,0,15.941,7.138,15.941,15.942
		S444.992,570.532,436.188,570.532"/>
</g>
<g>
	<defs>
		<rect id="SVGID_3_" x="0.12" width="699.84" height="791.76"/>
	</defs>
	<clipPath id="SVGID_4_">
		<use xlink:href="#SVGID_3_"  overflow="visible"/>
	</clipPath>
	<path clip-path="url(#SVGID_4_)" fill="#FFFFFF" d="M417.949,790.802c-2.664,0-4.387-0.039-5.059-0.059h-291.11
		c-12.82,0-23.25-10.431-23.25-23.25V104.692c0-12.82,10.43-23.25,23.25-23.25h554.426c12.82,0,23.25,10.43,23.25,23.25v484.766
		l-0.031,0.479c-2.684,44.661-17.813,83.004-44.965,113.958c-21.957,25.039-51.754,45.164-88.555,59.82
		C502.809,788.849,436.707,790.802,417.949,790.802 M130.414,758.859h282.973l0.266,0.009c0.004,0,1.531,0.047,4.297,0.047
		c17.324,0,78.336-1.789,136.16-24.82c71.023-28.285,109.195-77.266,113.465-145.602V113.325h-537.16V758.859z"/>
	<path clip-path="url(#SVGID_4_)" fill="#FFFFFF" d="M111.191,709.626H23.25c-12.82,0-23.25-10.431-23.25-23.25V23.575
		c0-12.82,10.43-23.25,23.25-23.25h554.426c12.82,0,23.25,10.43,23.25,23.25v64.582c0,8.805-7.137,15.942-15.941,15.942
		s-15.941-7.137-15.941-15.942V32.208H31.883v645.535h79.308c8.805,0,15.942,7.137,15.942,15.941
		C127.133,702.488,119.996,709.626,111.191,709.626"/>
</g>
</svg>
