<?xml version="1.0" encoding="utf-8"?>
<!-- Generator: Adobe Illustrator 15.0.0, SVG Export Plug-In . SVG Version: 6.00 Build 0)  -->
<!DOCTYPE svg PUBLIC "-//W3C//DTD SVG 1.1//EN" "http://www.w3.org/Graphics/SVG/1.1/DTD/svg11.dtd">
<svg version="1.1" id="图层_1" xmlns="http://www.w3.org/2000/svg" xmlns:xlink="http://www.w3.org/1999/xlink" x="0px" y="0px"
	 width="666px" height="632.957px" viewBox="0 0 666 632.957" enable-background="new 0 0 666 632.957" xml:space="preserve">
<g>
	<defs>
		<rect id="SVGID_1_" width="666" height="632.957"/>
	</defs>
	<clipPath id="SVGID_2_">
		<use xlink:href="#SVGID_1_"  overflow="visible"/>
	</clipPath>
	<path clip-path="url(#SVGID_2_)" fill="#FFFFFF" d="M650.848,549.421h-32.449c-8.172,0-14.797-6.625-14.797-14.801
		c0-8.171,6.625-14.8,14.797-14.8h17.691V129.597c-0.035-19.031-15.461-34.445-34.488-34.473h-71.297
		c-8.176,0-14.801-6.625-14.801-14.8c0-8.172,6.625-14.797,14.801-14.797h71.297c35.344,0.07,63.969,28.726,64,64.07v405.046
		C665.594,542.796,658.996,549.402,650.848,549.421"/>
</g>
<g>
	<defs>
		<rect id="SVGID_3_" x="0.12" y="0.077" width="665.88" height="632.88"/>
	</defs>
	<clipPath id="SVGID_4_">
		<use xlink:href="#SVGID_3_"  overflow="visible"/>
	</clipPath>
	<path clip-path="url(#SVGID_4_)" fill="#FFFFFF" d="M300.566,493.949c-136.175,0-246.964-110.801-246.964-246.985
		c0-67.351,26.613-130.297,74.957-177.222c5.89-5.465,15.066-5.223,20.66,0.539c5.597,5.765,5.566,14.941-0.067,20.668
		c-42.343,40.828-66.183,97.179-65.992,156c0,119.878,97.528,217.418,217.406,217.418c119.883,0,217.418-97.524,217.418-217.403
		c0.188-58.824-23.652-115.172-66-156c-3.934-3.644-5.582-9.137-4.309-14.344c1.27-5.211,5.266-9.324,10.434-10.746
		c5.172-1.425,10.707,0.059,14.465,3.883c48.336,46.938,74.969,109.871,74.969,177.223
		C547.551,383.148,436.754,493.949,300.566,493.949"/>
	<path clip-path="url(#SVGID_4_)" fill="#FFFFFF" d="M495.199,549.421H64c-35.336-0.07-63.957-28.711-64-64.047V80.351
		c0.02-8.141,6.613-14.738,14.754-14.754h60.797c8.176,0,14.801,6.625,14.801,14.801c0,8.172-6.625,14.801-14.801,14.801H29.535
		v390.238C29.598,504.441,45,519.82,64,519.863h431.199c8.176,0,14.801,6.625,14.801,14.796c0,8.176-6.625,14.801-14.801,14.801
		V549.421z"/>
	<path clip-path="url(#SVGID_4_)" fill="#FFFFFF" d="M405.602,186.398H188.742c-8.172,0-14.797-6.629-14.797-14.801
		c0-8.176,6.625-14.801,14.797-14.801h216.859c8.172,0,14.797,6.625,14.797,14.801C420.398,179.769,413.773,186.398,405.602,186.398
		 M297.191,264.863H188.742c-8.172,0-14.797-6.629-14.797-14.801c0-8.176,6.625-14.801,14.797-14.801h108.449
		c8.176,0,14.801,6.625,14.801,14.801C311.992,258.234,305.367,264.863,297.191,264.863"/>
	<path clip-path="url(#SVGID_4_)" fill="#FFFFFF" d="M300.566,493.949c-136.175,0-246.964-110.801-246.964-246.985
		c0-67.351,26.613-130.297,74.957-177.222c95.816-92.989,248.187-92.989,344,0c48.336,46.933,74.969,109.871,74.969,177.222
		C547.551,383.148,436.754,493.949,300.566,493.949 M149.152,90.949c-42.343,40.828-66.183,97.179-65.992,156
		c0,119.878,97.528,217.418,217.406,217.418c119.883,0,217.417-97.524,217.417-217.403C517.961,159.64,465.695,80.8,385.27,46.781
		c-80.43-34.024-173.407-16.622-236.085,44.183L149.152,90.949z M643.305,631.995c-3.941,0.016-7.727-1.546-10.504-4.343
		l-82.281-82.575c-5.579-5.813-5.473-15.023,0.234-20.71c5.707-5.685,14.918-5.754,20.711-0.153l82.313,82.574
		c4.206,4.235,5.456,10.582,3.168,16.098C654.656,628.398,649.272,631.992,643.305,631.995"/>
</g>
<g>
	<defs>
		<rect id="SVGID_5_" width="666" height="632.957"/>
	</defs>
	<clipPath id="SVGID_6_">
		<use xlink:href="#SVGID_5_"  overflow="visible"/>
	</clipPath>
	<path clip-path="url(#SVGID_6_)" fill="#FFFFFF" d="M560.992,549.421c-3.931,0.004-7.703-1.562-10.473-4.351L440.617,434.82
		c-5.578-5.813-5.477-15.024,0.234-20.707c5.707-5.688,14.918-5.754,20.707-0.157l109.906,110.258
		c4.215,4.231,5.469,10.586,3.176,16.103c-2.289,5.515-7.676,9.112-13.648,9.112V549.421z"/>
</g>
</svg>
