<?xml version="1.0" encoding="utf-8"?>
<!-- Generator: Adobe Illustrator 15.0.0, SVG Export Plug-In . SVG Version: 6.00 Build 0)  -->
<!DOCTYPE svg PUBLIC "-//W3C//DTD SVG 1.1//EN" "http://www.w3.org/Graphics/SVG/1.1/DTD/svg11.dtd">
<svg version="1.1" id="图层_1" xmlns="http://www.w3.org/2000/svg" xmlns:xlink="http://www.w3.org/1999/xlink" x="0px" y="0px"
	 width="694.906px" height="635.76px" viewBox="0 0 694.906 635.76" enable-background="new 0 0 694.906 635.76"
	 xml:space="preserve">
<g>
	<defs>
		<rect id="SVGID_1_" width="694.906" height="635.76"/>
	</defs>
	<clipPath id="SVGID_2_">
		<use xlink:href="#SVGID_1_"  overflow="visible"/>
	</clipPath>
	<path clip-path="url(#SVGID_2_)" fill="#FFFFFF" d="M429.426,164.004c14.637,0.004,28.16,7.817,35.477,20.496
		c7.313,12.676,7.309,28.297-0.012,40.969c-7.32,12.676-20.848,20.48-35.488,20.477c-22.625-0.004-40.965-18.352-40.957-40.981
		C388.449,182.34,406.797,164,429.426,164.004 M286.066,164.004c14.637,0.004,28.161,7.817,35.473,20.496
		c7.316,12.676,7.313,28.297-0.008,40.969c-7.324,12.676-20.851,20.48-35.488,20.477c-22.625-0.004-40.965-18.352-40.957-40.981
		C245.09,182.34,263.438,164,286.066,164.004 M142.703,164.004c14.641,0.004,28.164,7.817,35.477,20.496
		c7.316,12.676,7.312,28.297-0.008,40.969c-7.324,12.676-20.852,20.48-35.488,20.477c-22.625-0.004-40.965-18.352-40.961-40.981
		C101.73,182.34,120.078,164,142.703,164.004"/>
	<path clip-path="url(#SVGID_2_)" fill="#FFFFFF" d="M242.648,532.277c-7.48,0.005-14.363-4.082-17.941-10.648l-69.57-121.98
		c-5.246-9.785-1.735-21.969,7.91-27.465c9.644-5.5,21.914-2.309,27.664,7.188l51.957,91.078l51.977-91.078
		c5.75-9.496,18.019-12.688,27.664-7.188c9.644,5.496,13.156,17.68,7.91,27.465l-69.59,121.98
		c-3.602,6.543-10.469,10.621-17.941,10.648H242.648z"/>
</g>
<g>
	<defs>
		<rect id="SVGID_3_" width="694.8" height="635.76"/>
	</defs>
	<clipPath id="SVGID_4_">
		<use xlink:href="#SVGID_3_"  overflow="visible"/>
	</clipPath>
	<path clip-path="url(#SVGID_4_)" fill="#FFFFFF" d="M503.461,409.234h-188.93c-11.308,0-20.48-9.172-20.48-20.48
		c0-11.313,9.172-20.48,20.48-20.48h188.93c26.766,0,48.516-20.848,48.516-46.449V87.758c0-25.598-21.77-46.406-48.516-46.406
		H89.477c-26.747,0-48.516,20.808-48.516,46.406v234.066c0,25.602,21.769,46.449,48.516,46.449h82.187
		c11.309,0,20.481,9.168,20.481,20.48c0,11.309-9.172,20.48-20.481,20.48H89.477C40.141,409.234,0,370.035,0,321.824V87.758
		C0,39.59,40.141,0.391,89.477,0.391h413.984c49.336,0,89.477,39.199,89.477,87.367v234.066
		C592.938,370.035,552.797,409.234,503.461,409.234 M450.848,634.801h-0.043c-2.867,0-5.699-0.605-8.313-1.781
		c-4.074-1.789-7.445-4.871-9.586-8.766L362.27,501.945c-3.715-6.34-3.75-14.184-0.09-20.559
		c3.66-6.371,10.453-10.293,17.805-10.277c7.348,0.016,14.125,3.969,17.758,10.355l53.086,91.895l53.082-91.895
		c2.707-4.711,7.184-8.152,12.43-9.558c5.25-1.407,10.844-0.665,15.547,2.062c4.707,2.715,8.145,7.188,9.551,12.434
		c1.406,5.25,0.664,10.84-2.055,15.543l-70.637,122.309C465.16,630.782,458.293,634.828,450.848,634.801"/>
	<path clip-path="url(#SVGID_4_)" fill="#FFFFFF" d="M605.121,511.551H522.59c-11.313,0-20.48-9.168-20.48-20.48
		c0-11.309,9.168-20.48,20.48-20.48h82.531c26.914,0,48.824-19.477,48.824-43.438V203.43c0-17.492-11.734-33.219-29.879-40.059
		c-10.039-4.336-14.906-15.789-11.063-26.027c3.844-10.238,15.047-15.656,25.461-12.312c34.281,12.882,56.441,43.664,56.441,78.398
		v223.723C694.906,473.684,654.621,511.551,605.121,511.551 M379.063,511.551h-51.609c-11.308,0-20.476-9.168-20.476-20.48
		c0-11.309,9.168-20.48,20.476-20.48h51.609c11.313,0,20.48,9.172,20.48,20.48C399.543,502.383,390.375,511.551,379.063,511.551"/>
</g>
</svg>
