<?xml version="1.0" encoding="utf-8"?>
<!-- Generator: Adobe Illustrator 15.0.0, SVG Export Plug-In . SVG Version: 6.00 Build 0)  -->
<!DOCTYPE svg PUBLIC "-//W3C//DTD SVG 1.1//EN" "http://www.w3.org/Graphics/SVG/1.1/DTD/svg11.dtd">
<svg version="1.1" id="图层_1" xmlns="http://www.w3.org/2000/svg" xmlns:xlink="http://www.w3.org/1999/xlink" x="0px" y="0px"
	 width="795.96px" height="761.76px" viewBox="0 0 795.96 761.76" enable-background="new 0 0 795.96 761.76" xml:space="preserve">
<g>
	<defs>
		<rect id="SVGID_1_" x="-13.223" y="0" width="795.84" height="761.76"/>
	</defs>
	<clipPath id="SVGID_2_">
		<use xlink:href="#SVGID_1_"  overflow="visible"/>
	</clipPath>
	<path clip-path="url(#SVGID_2_)" fill="#FFFFFF" d="M394.376,0.23c3.969,1.094,8.156,1.703,11.859,3.387
		c7.785,3.531,15.355,7.535,22.926,11.516c7.238,3.816,14.344,7.886,21.547,11.777c23.313,12.598,46.645,25.156,69.965,37.742
		c22.645,12.219,45.281,24.446,67.914,36.684c22.18,11.996,44.348,24.015,66.527,36.015c22.742,12.305,45.492,24.606,68.238,36.903
		c12.273,6.633,24.676,13.027,36.773,19.965c8.219,4.711,12.52,12.718,15.297,21.461c4.688,14.765,5.18,29.679-1.055,44.05
		c-3.016,6.961-8.117,12.508-15.688,15.637c-10.395,4.297-20.465,9.375-30.707,14.047c-20.005,9.129-40.043,18.176-60.047,27.316
		c-10.469,4.785-20.867,9.739-31.332,14.528c-21.16,9.687-42.344,19.32-63.52,28.972c-23.156,10.551-46.32,21.075-69.457,31.652
		c-13.961,6.383-27.828,12.969-41.836,19.246c-18.77,8.406-37.332,17.406-56.555,24.637c-16.832,6.328-34.074,4.695-50.574-2.898
		c-19.398-8.93-38.828-17.801-58.246-26.688c-17.559-8.035-35.113-16.066-52.676-24.093c-21.75-9.938-43.504-19.86-65.254-29.797
		c-17.562-8.024-35.113-16.066-52.672-24.094c-21.753-9.937-43.507-19.855-65.257-29.793c-16.981-7.754-33.965-15.484-50.922-23.289
		c-11.391-5.246-16.52-14.64-16.516-26.75c0.004-8.902,0.055-17.976,1.676-26.676c2.234-12.011,8.715-22.097,19.469-28.355
		c13.269-7.723,26.98-14.692,40.507-21.965c21.313-11.461,42.641-22.894,63.954-34.355c13.98-7.52,27.957-15.051,41.929-22.59
		c22.532-12.157,45.039-24.36,67.594-36.473c22.559-12.117,45.172-24.133,67.746-36.223c13.203-7.07,26.348-14.242,39.578-21.261
		c8.926-4.735,17.75-9.75,27-13.742c6.242-2.692,13.16-3.813,19.766-5.668c0.414-0.118,0.742-0.543,1.113-0.825H394.376z
		 M49.122,235.324c13.543,5.863,26.281,11.383,39.015,16.902c11.602,5.028,23.192,10.082,34.809,15.075
		c14.074,6.047,28.184,12.015,42.258,18.066c13.844,5.953,27.644,12.004,41.496,17.945c15.719,6.743,31.484,13.379,47.203,20.121
		c12.211,5.235,24.359,10.602,36.566,15.832c15.493,6.633,31.036,13.129,46.516,19.79c14.078,6.058,28.078,12.3,42.168,18.335
		c2.211,0.95,4.524,2.278,7.203,0.797c2.23-1.23,4.648-2.109,6.992-3.132c14.043-6.141,28.074-12.313,42.141-18.399
		c16.402-7.098,32.844-14.117,49.262-21.172c13.258-5.699,26.512-11.406,39.77-17.105c16.418-7.059,32.844-14.106,49.266-21.164
		c13.258-5.7,26.508-11.407,39.766-17.106c16.422-7.054,32.836-14.129,49.273-21.152c12.441-5.32,24.922-10.547,37.359-15.875
		c5.672-2.43,11.277-5.012,17.465-7.774c-1.441-0.98-2.313-1.691-3.285-2.21c-6.988-3.754-14.047-7.383-20.992-11.211
		c-20.066-11.047-40.063-22.207-60.137-33.235c-12.219-6.719-24.566-13.207-36.797-19.914
		c-20.527-11.262-40.992-22.637-61.508-33.926c-19.059-10.484-38.133-20.945-57.219-31.379
		c-19.305-10.562-38.637-21.07-57.941-31.632c-8.309-4.547-16.746-8.883-24.809-13.836c-10.59-6.508-10.453-6.727-21.145-0.778
		c-0.558,0.313-1.16,0.547-1.722,0.856c-12.489,6.765-25.004,13.488-37.461,20.324c-20.415,11.199-40.782,22.484-61.18,33.711
		c-18.492,10.184-36.996,20.348-55.508,30.492c-9.43,5.16-18.93,10.199-28.351,15.375c-20.633,11.336-41.215,22.766-61.86,34.086
		c-19.742,10.82-39.555,21.524-59.308,32.336C62.173,227.79,56.016,231.402,49.122,235.324"/>
	<path clip-path="url(#SVGID_2_)" fill="#FFFFFF" d="M782.567,379.833l-1.66,10.726c-2.004,12.938-4.801,25.527-12.363,36.676
		c-4.82,7.113-12.277,9.871-19.391,13.281c-6.789,3.258-13.785,6.086-20.645,9.203c-23.859,10.848-47.707,21.715-71.547,32.605
		c-10.004,4.57-19.969,9.219-29.969,13.801c-21.039,9.633-42.086,19.258-63.137,28.871c-23.723,10.832-47.465,21.629-71.184,32.477
		c-13.492,6.168-26.871,12.582-40.445,18.563c-15.652,6.895-31.309,13.824-47.242,20.02c-16.867,6.555-33.707,4.949-50.035-2.48
		c-15.711-7.152-31.348-14.469-47.047-21.652c-21.277-9.73-42.59-19.379-63.871-29.102c-18.023-8.234-36.016-16.551-54.039-24.789
		c-24.652-11.266-49.332-22.477-73.988-33.734c-15-6.852-29.961-13.789-44.969-20.621c-19.895-9.059-39.832-18.02-59.719-27.094
		c-9.316-4.254-14.015-12.441-17.512-21.449c-3.582-9.227-5.812-18.793-6.336-28.715c-0.015-0.387-0.527-0.746-0.808-1.121v-20.309
		c6.672,3.504,13.32,7.047,20.019,10.5c11.829,6.098,23.606,12.297,35.555,18.152c10.559,5.176,21.344,9.898,31.992,14.906
		c24.086,11.324,48.149,22.707,72.223,34.059c12.383,5.84,24.769,11.664,37.156,17.492c23.035,10.844,46.078,21.68,69.113,32.531
		c12.965,6.109,25.911,12.258,38.876,18.359c22.925,10.785,45.859,21.551,68.789,32.316c6.949,3.262,13.875,6.559,20.875,9.695
		c1.105,0.496,2.773,0.715,3.804,0.242c12.914-5.906,25.77-11.934,38.617-17.988c23.727-11.188,47.438-22.414,71.16-33.617
		c12.84-6.063,25.688-12.113,38.539-18.16c22.574-10.625,45.156-21.234,67.73-31.867c13.078-6.16,26.133-12.375,39.219-18.531
		c22.808-10.727,45.734-21.215,68.414-32.211c20.754-10.063,41.223-20.707,61.875-30.98c3.844-1.914,7.961-3.282,11.953-4.899
		C782.567,369.938,782.567,374.883,782.567,379.833"/>
	<path clip-path="url(#SVGID_2_)" fill="#FFFFFF" d="M-13.339,525.109c16.367,8.746,32.504,17.969,49.16,26.129
		c23.668,11.594,47.723,22.387,71.602,33.551c12.402,5.801,24.777,11.66,37.168,17.492c23.043,10.848,46.086,21.695,69.128,32.543
		c12.852,6.051,25.7,12.109,38.551,18.16c23.047,10.848,46.094,21.688,69.137,32.539c12.504,5.891,24.984,11.828,37.5,17.691
		c7.414,3.473,14.957,6.68,22.277,10.34c3.45,1.727,5.758-0.594,8.208-1.699c11.434-5.164,22.699-10.695,34.051-16.047
		c23.035-10.863,46.09-21.695,69.129-32.547c13.082-6.168,26.152-12.363,39.234-18.523c22.813-10.734,45.641-21.441,68.453-32.176
		c12.969-6.105,25.91-12.266,38.879-18.371c22.93-10.793,45.898-21.496,68.789-32.363c15.277-7.25,30.52-14.574,45.645-22.141
		c8.234-4.117,16.18-8.813,24.266-13.23c0.859-0.469,1.797-0.793,3.574-1.563c-0.73,8.094-0.996,15.563-2.16,22.891
		c-1.379,8.668-3.105,17.332-5.461,25.781c-2.367,8.48-6.48,16.441-14.141,21.273c-6.133,3.875-13.035,6.543-19.656,9.617
		c-8,3.711-16.078,7.254-24.098,10.918c-24.891,11.371-49.781,22.734-74.648,34.152c-10.926,5.02-21.778,10.203-32.699,15.23
		c-22.191,10.203-44.406,20.352-66.609,30.523c-24.762,11.34-49.531,22.668-74.277,34.043c-14.531,6.676-28.844,13.859-43.59,20.004
		c-10.309,4.297-20.98,8.234-31.875,10.48c-12.07,2.492-24.195,0.082-35.531-4.996c-12.957-5.805-25.805-11.836-38.731-17.711
		c-22.339-10.156-44.715-20.242-67.05-30.41c-12.688-5.777-25.313-11.688-37.989-17.484c-21.398-9.781-42.812-19.523-64.215-29.285
		c-23.496-10.715-47-21.414-70.488-32.156c-12.676-5.797-25.312-11.68-37.98-17.492c-9.414-4.316-18.84-8.605-28.282-12.867
		c-8.578-3.875-13.027-11.352-16.492-19.441c-4.496-10.473-7.191-21.633-7.969-33.004c-0.027-0.387-0.531-0.742-0.812-1.113
		C-13.339,537.605-13.339,531.359-13.339,525.109"/>
</g>
</svg>
