<?xml version="1.0" encoding="UTF-8"?>
<svg width="14px" height="14px" viewBox="0 0 14 14" version="1.1" xmlns="http://www.w3.org/2000/svg" xmlns:xlink="http://www.w3.org/1999/xlink">
    <!-- Generator: Sketch 52.5 (67469) - http://www.bohemiancoding.com/sketch -->
    <title>关联</title>
    <desc>Created with Sketch.</desc>
    <g id="报销" stroke="none" stroke-width="1" fill="none" fill-rule="evenodd">
        <g id="行程明细，费用-未填写内容" transform="translate(-60.000000, -392.000000)">
            <g id="信息-copy-3" transform="translate(9.000000, 276.000000)">
                <g id="关联" transform="translate(49.000000, 114.000000)">
                    <g id="关联企业">
                        <rect id="矩形" fill-opacity="0" fill="#D8D8D8" x="0" y="0" width="18" height="18"></rect>
                        <path d="M5.89324405,15.0020047 C5.12014573,15.0073273 4.37751809,14.7008949 3.83313418,14.1519364 C3.28875028,13.6029778 2.98854303,12.8578119 3.0003347,12.0847852 C3.00946334,11.3035364 3.32351909,10.5567816 3.87550055,10.0038353 L5.37300656,8.51605335 C5.5596298,8.32003182 5.86982467,8.312413 6.0658462,8.49903623 C6.26186773,8.68565947 6.26948655,8.99585434 6.08286332,9.19187587 L4.56590917,10.6845198 C4.19196276,11.0572495 3.97900966,11.561704 3.9727412,12.0896473 C3.96406937,12.6067147 4.16588403,13.1051091 4.53187495,13.4704645 C5.31144739,14.2282384 6.55699158,14.2130224 7.31781958,13.4364303 L9.6515952,11.0977926 C10.0282162,10.7268721 10.2416567,10.2212631 10.2447632,9.69266521 C10.2538004,9.17695984 10.0518288,8.67993409 9.68562942,8.31671001 C9.56229979,8.19338039 9.51413409,8.01362355 9.55927586,7.84515215 C9.60441763,7.67668075 9.73600878,7.54508961 9.90448018,7.49994784 C10.0729516,7.45480606 10.2527084,7.50297177 10.376038,7.6263014 C10.9274124,8.17691841 11.2310642,8.92814946 11.2171697,9.70725131 C11.208041,10.4885002 10.8939853,11.235255 10.3420038,11.7882012 L8.02767632,14.1268389 C7.46220869,14.6927786 6.69324696,15.0080705 5.89324405,15.0020047 Z M7.96933193,10.5192107 C7.84009766,10.5199579 7.71588334,10.4692225 7.62412763,10.3782118 C7.0727533,9.82759478 6.7691015,9.07636374 6.782996,8.29726189 C6.79212464,7.51601302 7.10618039,6.76925824 7.65816186,6.21631196 L9.9967995,3.87767432 C11.1374657,2.72085894 12.9992671,2.70563393 14.1586994,3.84364008 C14.7053832,4.39735257 15.0082015,5.14652143 14.999831,5.92459001 C14.9970633,6.7142779 14.6825253,7.47091657 14.1246651,8.02985009 L12.6271591,9.48845985 C12.434253,9.65366047 12.1466959,9.6425534 11.9671074,9.46296495 C11.787519,9.28337651 11.7764119,8.99581939 11.9416125,8.80291326 L13.4342565,7.31026928 C13.8082029,6.93753959 14.021156,6.4330851 14.0274245,5.90514188 C14.0360963,5.38807447 13.8342816,4.88968002 13.4682907,4.52432464 C12.6887183,3.7665507 11.4431741,3.78176677 10.6823461,4.55835886 L8.34857047,6.89699652 C7.97194948,7.26791701 7.758509,7.77352602 7.75540251,8.30212391 C7.7463653,8.81782928 7.94833689,9.31485504 8.31453625,9.67807911 C8.40658068,9.76937185 8.45835436,9.89364339 8.45835436,10.0232834 C8.45835436,10.1529235 8.40658068,10.277195 8.31453625,10.3684877 C8.22439451,10.4630716 8.0999778,10.5173944 7.96933193,10.5192107 Z" id="形状" stroke="#293148" stroke-width="0.5" fill="#293148" fill-rule="nonzero"></path>
                    </g>
                </g>
            </g>
        </g>
    </g>
</svg>