<?xml version="1.0" encoding="UTF-8"?>
<svg width="24px" height="24px" viewBox="0 0 24 24" version="1.1" xmlns="http://www.w3.org/2000/svg" xmlns:xlink="http://www.w3.org/1999/xlink">
    <!-- Generator: Sketch 52.6 (67491) - http://www.bohemiancoding.com/sketch -->
    <title>左</title>
    <desc>Created with Sketch.</desc>
    <g id="报销" stroke="none" stroke-width="1" fill="none" fill-rule="evenodd">
        <g id="待办-操作-同意-签名确认-全屏" transform="translate(-555.000000, -99.000000)" fill-rule="nonzero">
            <g id="左" transform="translate(555.000000, 99.000000)">
                <circle id="Oval" fill="#E7E7E9" cx="12" cy="12" r="12"></circle>
                <path d="M10.6666961,7.75002943 L12.6666961,7.75002943 C15.2900487,7.75002943 17.4166961,9.87667686 17.4166961,12.5000294 C17.4166961,15.123382 15.2900487,17.2500294 12.6666961,17.2500294 L8.66669609,17.2500294 C8.25248253,17.2500294 7.91669609,16.914243 7.91669609,16.5000294 C7.91669609,16.0858159 8.25248253,15.7500294 8.66669609,15.7500294 L12.6666961,15.7500294 C14.4616215,15.7500294 15.9166961,14.2949549 15.9166961,12.5000294 C15.9166961,10.705104 14.4616215,9.25002943 12.6666961,9.25002943 L10.6666961,9.25002943 L10.6666961,10.5000294 C10.6666961,10.7761718 10.4428385,11.0000294 10.1666961,11.0000294 C10.058511,11.0000294 9.95324418,10.9649405 9.86669609,10.9000294 L7.20002943,8.90002943 C6.97911553,8.734344 6.934344,8.42094333 7.10002943,8.20002943 C7.12845655,8.16212659 7.16212659,8.12845655 7.20002943,8.10002943 L9.86669609,6.10002943 C10.08761,5.934344 10.4010107,5.97911553 10.5666961,6.20002943 C10.6316072,6.28657751 10.6666961,6.39184432 10.6666961,6.50002943 L10.6666961,7.75002943 Z" id="Combined-Shape" fill="#FFFFFF"></path>
            </g>
        </g>
    </g>
</svg>