<?xml version="1.0" encoding="utf-8"?>
<!-- Generator: Adobe Illustrator 15.0.0, SVG Export Plug-In . SVG Version: 6.00 Build 0)  -->
<!DOCTYPE svg PUBLIC "-//W3C//DTD SVG 1.1//EN" "http://www.w3.org/Graphics/SVG/1.1/DTD/svg11.dtd">
<svg version="1.1" id="图层_1" xmlns="http://www.w3.org/2000/svg" xmlns:xlink="http://www.w3.org/1999/xlink" x="0px" y="0px"
	 width="879.856px" height="688.952px" viewBox="0 0 879.856 688.952" enable-background="new 0 0 879.856 688.952"
	 xml:space="preserve">
<g>
	<defs>
		<rect id="SVGID_1_" width="879.856" height="688.952"/>
	</defs>
	<clipPath id="SVGID_2_">
		<use xlink:href="#SVGID_1_"  overflow="visible"/>
	</clipPath>
	<g clip-path="url(#SVGID_2_)">
		<defs>
			<rect id="SVGID_3_" width="879.856" height="688.952"/>
		</defs>
		<clipPath id="SVGID_4_">
			<use xlink:href="#SVGID_3_"  overflow="visible"/>
		</clipPath>
		<path clip-path="url(#SVGID_4_)" fill-rule="evenodd" clip-rule="evenodd" fill="#4B9AFF" d="M569.968,380.952c0,0-261-62-315-12
			s-48,68-110,66s-194,124-126,158s90,76,242,44s194.611-3.435,234,10c129,44,96.575-52.171,298-28c125,15,136-220-107-267
			C636.838,342.45,617.968,418.952,569.968,380.952"/>
		<path clip-path="url(#SVGID_4_)" fill="#F1F2FC" d="M387.505,269.313c-0.008,0.009-0.011,0.021-0.01,0.033
			c0.003,0.021,0.018,0.036,0.027,0.043l0.017-0.026c0.001,0.001,0.002,0.001,0.003,0.001l-0.02,0.025
			c0.027,0.022,0.057,0.022,0.074,0.001l-0.025-0.02h0.002c-0.012-0.015-0.008-0.032-0.034-0.045
			c-0.005,0.003-0.005,0.006-0.007,0.009L387.505,269.313z"/>
		<path clip-path="url(#SVGID_4_)" fill="#F1F2FC" d="M386.407,265.851l0.03,0.024c-0.001,0.001-0.003,0-0.003,0.001
			c0.013,0.011,0.003,0.025,0.023,0.036c0.005-0.002,0.006-0.006,0.008-0.009l0.031,0.024c0.019-0.023,0.013-0.058-0.014-0.08
			l-0.024,0.03l0.024-0.03c-0.01-0.007-0.02-0.012-0.031-0.013C386.434,265.831,386.417,265.838,386.407,265.851"/>
		<path clip-path="url(#SVGID_4_)" fill="#F1F2FC" d="M382.978,271.549l0.012,0.047c0.016,0.007,0.027,0.016,0.037,0.023
			c0.014,0.01,0.029,0.021,0.049,0.02l0.022-0.049c-0.003-0.004-0.005-0.01-0.007-0.018c-0.006-0.018-0.014-0.042-0.048-0.062
			l-0.04,0.007L382.978,271.549z"/>
		<path clip-path="url(#SVGID_4_)" fill="#F1F2FC" d="M379.054,269.111l-0.009,0.026c0.001,0.016,0.023,0.061,0.055,0.072
			c0.018,0.006,0.036,0.002,0.05-0.012l0.003-0.04c0.002,0.004,0.002,0.01,0.003,0.011v-0.044
			C379.104,269.072,379.065,269.102,379.054,269.111"/>
		<path clip-path="url(#SVGID_4_)" fill="#F1F2FC" d="M380.761,267.834l-0.018-0.003c-0.025,0.004-0.048,0.016-0.063,0.035
			c-0.023,0.029-0.029,0.069-0.014,0.106l0.03,0.023L380.75,268l0.035-0.017l0.009-0.011c0.044-0.055,0.024-0.096,0.009-0.116
			l-0.014-0.011L380.761,267.834z"/>
		<path clip-path="url(#SVGID_4_)" fill="#F1F2FC" d="M381.183,269.486l-0.049,0.003c-0.007,0.01-0.018,0.028-0.013,0.05
			c0.004,0.013,0.014,0.024,0.029,0.032l0.04-0.012c0.001-0.002,0.003-0.005,0.005-0.007c0.008-0.011,0.032-0.043,0.005-0.07
			l-0.021,0.001C381.181,269.484,381.182,269.485,381.183,269.486"/>
		<path clip-path="url(#SVGID_4_)" fill="#F1F2FC" d="M381.02,271.355c0,0,0.001-0.004,0.003-0.012l-0.015,0.052
			c0.017,0.017,0.034,0.024,0.052,0.023c0.012-0.001,0.03-0.006,0.046-0.026l0.006-0.007l-0.007-0.042
			c-0.007-0.005-0.009-0.01-0.013-0.021l-0.055-0.008C381.022,271.333,381.021,271.346,381.02,271.355"/>
		<path clip-path="url(#SVGID_4_)" fill="#F1F2FC" d="M378.872,266.498l-0.04-0.007c-0.007,0.004-0.015,0.007-0.022,0.01
			c-0.011,0.004-0.022,0.009-0.033,0.015l-0.006,0.047c0.017,0.017,0.04,0.027,0.063,0.026c0.019-0.001,0.034-0.008,0.044-0.02
			C378.884,266.562,378.901,266.534,378.872,266.498"/>
		<path clip-path="url(#SVGID_4_)" fill="#F1F2FC" d="M379.327,267.728c-0.019,0.024-0.017,0.058,0.007,0.079l0.039,0.001
			c0.002-0.001,0.005-0.002,0.009-0.004c0.009-0.004,0.022-0.01,0.034-0.025c0.004-0.004,0.007-0.009,0.01-0.015l-0.003-0.033
			c-0.014-0.017-0.031-0.025-0.05-0.025C379.355,267.705,379.338,267.714,379.327,267.728"/>
		<path clip-path="url(#SVGID_4_)" fill="#F1F2FC" d="M387.602,267.056c-0.013-0.001-0.036-0.002-0.055,0.017l0.002,0.047
			c0.026,0.019,0.085,0.024,0.109-0.006c0.011-0.014,0.012-0.033,0.002-0.051l-0.048-0.007
			C387.611,267.056,387.605,267.056,387.602,267.056"/>
		<path clip-path="url(#SVGID_4_)" fill="#F1F2FC" d="M385.239,265.223l-0.004-0.002c-0.008-0.029-0.025-0.069-0.072-0.087
			c-0.038-0.014-0.08-0.007-0.113,0.02l-0.025,0.04l-0.009,0.037v0.03l0.001,0.013c0.002,0.032,0.005,0.09,0.055,0.129
			c0.03,0.023,0.07,0.031,0.111,0.023l0.056-0.053l0.01-0.04h0.009C385.272,265.281,385.256,265.244,385.239,265.223"/>
		<path clip-path="url(#SVGID_4_)" fill="#F1F2FC" d="M386.001,267.885h-0.017c-0.009,0.003-0.037,0.009-0.057,0.034
			c-0.009,0.012-0.037,0.054,0.005,0.111l0.027,0.014l0.06,0.002c0.008-0.002,0.032-0.008,0.051-0.032l0.009-0.013l0.005-0.026
			l-0.008-0.039l-0.013-0.021l-0.021-0.017l-0.015-0.007L386.001,267.885z"/>
		<path clip-path="url(#SVGID_4_)" fill="#F1F2FC" d="M383.24,263.225l-0.022,0.015c-0.037,0.055-0.03,0.098-0.018,0.124
			l0.015,0.016l0.03,0.018l0.021,0.005c0.029-0.002,0.055-0.016,0.073-0.038c0.017-0.022,0.024-0.05,0.019-0.076
			c-0.005-0.028-0.023-0.053-0.051-0.069l-0.026-0.004L383.24,263.225z"/>
		<path clip-path="url(#SVGID_4_)" fill="#F1F2FC" d="M382.252,264.482c-0.01,0.002-0.026,0.005-0.041,0.018l-0.014,0.026
			l-0.002,0.053c0.001,0.007,0.004,0.024,0.016,0.041l0.026,0.014l0.058,0.003c0.007-0.002,0.022-0.005,0.038-0.017l0.014-0.026
			l0.003-0.055c-0.002-0.008-0.005-0.025-0.019-0.042l-0.025-0.013L382.252,264.482z"/>
		<path clip-path="url(#SVGID_4_)" fill="#F1F2FC" d="M386.403,267.115c-0.008,0.002-0.023,0.005-0.039,0.017l-0.013,0.027
			l-0.002,0.058c0.003,0.011,0.011,0.042,0.048,0.062l0.024,0.004l0.039-0.008l0.021-0.013l0.025-0.031l0.007-0.027l-0.004-0.043
			l-0.014-0.024l-0.021-0.017l-0.024-0.008L386.403,267.115z"/>
		<path clip-path="url(#SVGID_4_)" fill="#F1F2FC" d="M387.827,265.372c-0.002,0-0.007-0.003-0.01-0.004
			c-0.013-0.007-0.038-0.019-0.062-0.003l-0.001,0.051c0.007,0.005,0.008,0.009,0.012,0.021l0.05,0.013
			c0.002-0.001,0.009-0.003,0.014-0.005c0.015-0.004,0.033-0.009,0.044-0.023c0.004-0.006,0.018-0.027,0-0.055l-0.057,0.009
			C387.819,265.373,387.824,265.371,387.827,265.372"/>
		<path clip-path="url(#SVGID_4_)" fill="#F1F2FC" d="M383.942,261.975c-0.022,0.028-0.021,0.063,0.004,0.085l0.048-0.002
			c0.009,0,0.023-0.001,0.037-0.012l0.004-0.051c-0.001-0.01-0.002-0.024-0.012-0.038l-0.027-0.013
			C383.978,261.945,383.957,261.958,383.942,261.975"/>
		<path clip-path="url(#SVGID_4_)" fill="#F1F2FC" d="M386.72,264.327c0.024,0.021,0.059,0.019,0.08-0.005l0.002-0.04
			c-0.002-0.001-0.003-0.004-0.005-0.008c-0.005-0.012-0.013-0.031-0.039-0.044l-0.033,0.003
			C386.692,264.26,386.691,264.303,386.72,264.327"/>
		<path clip-path="url(#SVGID_4_)" fill="#F1F2FC" d="M385.441,264.402l-0.014-0.034l-0.021-0.023
			c-0.045-0.036-0.085-0.041-0.12-0.013l-0.014,0.028v0.015l-0.004,0.001c-0.03,0.052-0.009,0.086,0.006,0.102l0.012,0.009
			l0.027,0.012c0.041,0.019,0.079,0.011,0.105-0.021c0.01-0.013,0.018-0.03,0.024-0.053L385.441,264.402z"/>
		<path clip-path="url(#SVGID_4_)" fill="#F1F2FC" d="M386.044,264.792l-0.017,0.027l-0.004,0.049l0.011,0.029
			c0.019,0.018,0.055,0.052,0.103,0.048c0.026-0.001,0.05-0.015,0.068-0.037c0.003-0.004,0.006-0.009,0.01-0.015l0.004-0.027
			l-0.011-0.042l-0.017-0.022C386.171,264.789,386.108,264.752,386.044,264.792"/>
		<path clip-path="url(#SVGID_4_)" fill="#F1F2FC" d="M386.367,262.833c0.022,0.044,0.044,0.091,0.052,0.139l0.058,0.007
			c0.016-0.038,0.01-0.095-0.014-0.138c-0.016-0.029-0.038-0.047-0.063-0.052L386.367,262.833z"/>
		<path clip-path="url(#SVGID_4_)" fill="#F1F2FC" d="M384.934,263.057l-0.006,0.044c0.001,0.001,0.003,0.004,0.004,0.008
			c0.005,0.012,0.013,0.03,0.039,0.044l0.036-0.005c0.005-0.005,0.009-0.009,0.013-0.014c0.024-0.03,0.025-0.064,0-0.088
			l-0.048-0.001C384.962,263.046,384.948,263.047,384.934,263.057"/>
		<path clip-path="url(#SVGID_4_)" fill="#F1F2FC" d="M383.839,268.443v-0.004c-0.021-0.004-0.047-0.004-0.072,0.005l-0.03-0.01
			l-0.04,0.001l-0.013,0.002c-0.009,0.002-0.033,0.007-0.056,0.026l-0.026,0.054l-0.001,0.048l0.002,0.021
			c0.01,0.036,0.032,0.064,0.064,0.082l0.049,0.008l0.039-0.008l0.014-0.008l0.047,0.011l0.045-0.008l0.05-0.035
			c0.052-0.067,0.034-0.129,0-0.164l-0.053-0.021H383.839z"/>
		<path clip-path="url(#SVGID_4_)" fill="#F1F2FC" d="M382.14,268.323c-0.018,0.022-0.025,0.048-0.019,0.071
			c0.004,0.023,0.019,0.043,0.041,0.054l0.024,0.003l0.02-0.004l0.001-0.006l0.028,0.001l0.028-0.014l0.017-0.021l0.008-0.016
			l0.005-0.029l-0.002-0.018c-0.01-0.031-0.035-0.053-0.064-0.058C382.196,268.281,382.162,268.295,382.14,268.323"/>
		<path clip-path="url(#SVGID_4_)" fill="#F1F2FC" d="M381.82,266.819c-0.015,0.019-0.026,0.042-0.031,0.067l0.002,0.039
			l0.011,0.031l0.023,0.032l0.053,0.042l0.053,0.016l0.043-0.005l0.048-0.027l0.051-0.063l0.015-0.054l-0.005-0.043l-0.028-0.048
			C381.976,266.745,381.875,266.75,381.82,266.819"/>
		<path clip-path="url(#SVGID_4_)" fill="#F1F2FC" d="M383.361,267.952l-0.036,0.007l-0.049,0.033
			c-0.067,0.084-0.026,0.166-0.012,0.195l0.006,0.012l0.032,0.034l0.034,0.017l0.047,0.007c0.037-0.008,0.068-0.026,0.09-0.054
			c0.029-0.036,0.039-0.082,0.029-0.128c-0.011-0.05-0.046-0.093-0.096-0.117L383.361,267.952z"/>
		<path clip-path="url(#SVGID_4_)" fill="#F1F2FC" d="M385.032,270.801l-0.007,0.052l0.063,0.051l0.05-0.02
			c0.003-0.027,0.01-0.043,0.017-0.06c0.008-0.02,0.016-0.041,0.017-0.073l-0.03-0.031c-0.035-0.001-0.059,0.017-0.079,0.05
			C385.055,270.782,385.046,270.795,385.032,270.801"/>
		<path clip-path="url(#SVGID_4_)" fill="#F1F2FC" d="M380.591,264.321l0.003-0.048l-0.075,0.053l0.047,0.005
			C380.572,264.33,380.582,264.328,380.591,264.321"/>
		<path clip-path="url(#SVGID_4_)" fill="#F1F2FC" d="M384.007,266.791l-0.005-0.043l-0.026-0.049l-0.021-0.016l-0.049-0.016
			l-0.052,0.003c-0.01,0.002-0.032,0.007-0.056,0.026l-0.027,0.053l-0.001,0.047l0.002,0.023c0.004,0.014,0.015,0.056,0.065,0.083
			l0.048,0.007l0.039-0.007l0.042-0.026l0.026-0.032L384.007,266.791z"/>
		<path clip-path="url(#SVGID_4_)" fill="#F1F2FC" d="M384.732,267.136l-0.029-0.016l-0.039-0.008
			c-0.036,0.002-0.069,0.02-0.093,0.05c-0.029,0.037-0.042,0.086-0.033,0.132l0.027,0.045l0.033,0.025l0.05,0.014
			c0.047-0.004,0.084-0.022,0.108-0.052c0.017-0.021,0.051-0.079,0.004-0.162L384.732,267.136z"/>
		<path clip-path="url(#SVGID_4_)" fill="#F1F2FC" d="M385.93,268.692c0.002,0.014,0.009,0.026,0.02,0.035l0.049-0.012
			c0.011,0.001,0.034,0.002,0.052-0.02c0.003-0.004,0.006-0.009,0.009-0.015l-0.003-0.032c-0.014-0.018-0.032-0.028-0.054-0.028
			C385.965,268.62,385.926,268.656,385.93,268.692"/>
		<path clip-path="url(#SVGID_4_)" fill="#F1F2FC" d="M385.264,268.892c-0.021,0.026-0.027,0.058-0.018,0.085
			c0.01,0.028,0.034,0.048,0.065,0.055l0.02-0.001l0.03-0.011l0.017-0.011l0.025-0.032l0.007-0.018l0.004-0.032l-0.003-0.02
			c-0.014-0.029-0.038-0.048-0.067-0.051C385.314,268.853,385.285,268.865,385.264,268.892"/>
		<path clip-path="url(#SVGID_4_)" fill="#F1F2FC" d="M381.992,270.232c-0.004,0.004-0.007,0.008-0.01,0.012
			c-0.005,0.006-0.02,0.024-0.013,0.046c0.004,0.016,0.016,0.027,0.035,0.034l0.014,0.002c0.022-0.002,0.034-0.012,0.04-0.02
			c0.022-0.027,0.005-0.066-0.002-0.082L382,270.224C381.997,270.227,381.995,270.229,381.992,270.232"/>
		<path clip-path="url(#SVGID_4_)" fill="#F1F2FC" d="M385.049,266.319l-0.027,0.017l-0.027,0.03
			c-0.029,0.06-0.016,0.114-0.008,0.153l0.021,0.037l0.024,0.023l0.037,0.019c0.052,0.01,0.102-0.008,0.133-0.047
			c0.036-0.044,0.042-0.108,0.016-0.161c-0.025-0.051-0.075-0.083-0.131-0.082L385.049,266.319z"/>
		<path clip-path="url(#SVGID_4_)" fill="#F1F2FC" d="M381.28,265.475l-0.012-0.005h-0.042l-0.024,0.01
			c-0.005,0.005-0.01,0.009-0.013,0.014c-0.018,0.021-0.025,0.046-0.021,0.073c0.006,0.047,0.047,0.075,0.068,0.09l0.025,0.007
			l0.041-0.005l0.023-0.013l0.006-0.007c0.023-0.029,0.034-0.059,0.033-0.089l-0.002-0.013l-0.009-0.021l-0.008-0.011
			c-0.024-0.024-0.049-0.029-0.064-0.032L381.28,265.475z"/>
		<path clip-path="url(#SVGID_4_)" fill="#F1F2FC" d="M383.478,266.318c0.013-0.001,0.044-0.004,0.075-0.026l0.029-0.057
			l0.001-0.049l-0.027-0.058l-0.031-0.025l-0.058-0.015l-0.045,0.008l-0.051,0.036c-0.062,0.083-0.017,0.145-0.001,0.161
			l0.051,0.024L383.478,266.318z"/>
		<path clip-path="url(#SVGID_4_)" fill="#F1F2FC" d="M388.417,263.048c-0.015,0.002-0.027,0.008-0.035,0.018l0.027,0.022
			c-0.003,0.002-0.007,0.004-0.006,0.008c0.003,0.016,0.036,0.018,0.04,0.015c0.007-0.004,0.006-0.007,0.007-0.011l0.028,0.022
			c0.015-0.019,0.012-0.044-0.007-0.06C388.458,263.051,388.437,263.046,388.417,263.048"/>
		<path clip-path="url(#SVGID_4_)" fill="#F1F2FC" d="M384.224,264.54l-0.046-0.011l-0.038,0.004l-0.043,0.02
			c-0.009,0.009-0.017,0.017-0.023,0.025c-0.063,0.079-0.051,0.158-0.018,0.206l0.033,0.026l0.031,0.013l0.04,0.004
			c0.037-0.007,0.072-0.028,0.096-0.059c0.029-0.036,0.042-0.083,0.035-0.127C384.283,264.599,384.259,264.563,384.224,264.54"/>
		<path clip-path="url(#SVGID_4_)" fill="#F1F2FC" d="M383.503,269.703c-0.007,0.001-0.024,0.004-0.042,0.019l-0.013,0.026
			l-0.002,0.053c0.002,0.01,0.006,0.026,0.018,0.042l0.026,0.013l0.053,0.002c0.007-0.001,0.024-0.004,0.041-0.017l0.014-0.026
			l0.003-0.056c-0.002-0.007-0.005-0.024-0.018-0.04l-0.026-0.014L383.503,269.703z"/>
		<path clip-path="url(#SVGID_4_)" fill="#F1F2FC" d="M381.773,262.862l0.008-0.022c-0.002-0.029-0.026-0.058-0.054-0.067
			c-0.022-0.008-0.045-0.001-0.061,0.017l-0.008,0.023c0.003,0.027,0.026,0.057,0.054,0.066
			C381.734,262.886,381.757,262.88,381.773,262.862"/>
		<path clip-path="url(#SVGID_4_)" fill="#F1F2FC" d="M379.943,266.855l-0.007,0.029c0.008,0.029,0.027,0.052,0.058,0.071
			l0.037-0.005l0.006-0.006c0.024-0.03,0.013-0.071-0.012-0.093C380,266.83,379.966,266.831,379.943,266.855"/>
		<g opacity="0.28" clip-path="url(#SVGID_4_)">
			<g>
				<defs>
					<rect id="SVGID_5_" x="383.139" y="8.11" width="372.3" height="551.285"/>
				</defs>
				<clipPath id="SVGID_6_">
					<use xlink:href="#SVGID_5_"  overflow="visible"/>
				</clipPath>
				<path clip-path="url(#SVGID_6_)" fill="#3FA9F5" d="M746.224,558.289l-353.87-204.307c-5.089-2.938-9.215-10.821-9.215-17.607
					V16.182c0-6.786,4.126-9.905,9.215-6.966l353.87,204.306c5.089,2.939,9.215,10.822,9.215,17.608v320.192
					C755.438,558.108,751.313,561.228,746.224,558.289"/>
			</g>
		</g>
		<g opacity="0.73" clip-path="url(#SVGID_4_)">
			<g>
				<defs>
					<rect id="SVGID_7_" x="324.567" y="32.139" width="372.3" height="551.285"/>
				</defs>
				<clipPath id="SVGID_8_">
					<use xlink:href="#SVGID_7_"  overflow="visible"/>
				</clipPath>
				<path clip-path="url(#SVGID_8_)" fill="#C0DDFF" d="M687.652,582.318L333.783,378.012c-5.09-2.938-9.216-10.821-9.216-17.607
					V40.212c0-6.786,4.126-9.905,9.216-6.966l353.869,204.306c5.089,2.939,9.215,10.822,9.215,17.608v320.192
					C696.867,582.138,692.741,585.257,687.652,582.318"/>
			</g>
		</g>
		<g opacity="0.4" clip-path="url(#SVGID_4_)">
			<g>
				<defs>
					<rect id="SVGID_9_" x="354.604" y="32.139" width="372.3" height="551.285"/>
				</defs>
				<clipPath id="SVGID_10_">
					<use xlink:href="#SVGID_9_"  overflow="visible"/>
				</clipPath>
				<path clip-path="url(#SVGID_10_)" fill="#FFFFFF" d="M717.688,582.318L363.82,378.012c-5.09-2.938-9.216-10.821-9.216-17.607
					V40.212c0-6.786,4.126-9.905,9.216-6.966l353.869,204.306c5.089,2.939,9.215,10.822,9.215,17.608v320.192
					C726.903,582.138,722.777,585.257,717.688,582.318"/>
			</g>
		</g>
		<path clip-path="url(#SVGID_4_)" fill="#8FBBEF" d="M655.362,604.847L301.494,400.539c-5.09-2.938-9.216-10.821-9.216-17.606
			V62.739c0-6.786,4.126-9.905,9.216-6.966l353.869,204.306c5.089,2.939,9.215,10.822,9.215,17.608v320.191
			C664.577,604.665,660.451,607.784,655.362,604.847"/>
		<path clip-path="url(#SVGID_4_)" fill="#FFFFFF" d="M417.937,446.486l-100.482-58.013c-5.089-2.939-9.215-10.822-9.215-17.608
			V93.236c0-6.785,4.126-9.905,9.215-6.966l100.482,58.013c5.089,2.939,9.215,10.822,9.215,17.608V439.52
			C427.151,446.306,423.025,449.425,417.937,446.486"/>
		<g opacity="0.37" clip-path="url(#SVGID_4_)">
			<g>
				<defs>
					<rect id="SVGID_11_" x="435.132" y="158.426" width="213.484" height="287.741"/>
				</defs>
				<clipPath id="SVGID_12_">
					<use xlink:href="#SVGID_11_"  overflow="visible"/>
				</clipPath>
				<path clip-path="url(#SVGID_12_)" fill="#F3FCFF" d="M639.401,445.062L444.348,332.448c-5.089-2.939-9.215-10.822-9.215-17.608
					V166.499c0-6.786,4.126-9.905,9.215-6.966l195.054,112.614c5.089,2.938,9.215,10.821,9.215,17.607v148.341
					C648.616,444.881,644.49,448,639.401,445.062"/>
			</g>
		</g>
		<g opacity="0.4" clip-path="url(#SVGID_4_)">
			<g>
				<defs>
					<rect id="SVGID_13_" x="607.117" y="291.305" width="29.527" height="137.8"/>
				</defs>
				<clipPath id="SVGID_14_">
					<use xlink:href="#SVGID_13_"  overflow="visible"/>
				</clipPath>
				<polygon clip-path="url(#SVGID_14_)" fill="#FFFFFF" points="607.117,412.057 636.646,429.104 636.646,291.305 607.117,307.244 
									"/>
			</g>
		</g>
		<g opacity="0.4" clip-path="url(#SVGID_4_)">
			<g>
				<defs>
					<rect id="SVGID_15_" x="543.271" y="270.405" width="29.528" height="121.839"/>
				</defs>
				<clipPath id="SVGID_16_">
					<use xlink:href="#SVGID_15_"  overflow="visible"/>
				</clipPath>
				<polygon clip-path="url(#SVGID_16_)" fill="#FFFFFF" points="543.271,375.195 572.8,392.243 572.8,270.406 543.271,283.684 				
					"/>
			</g>
		</g>
		<g opacity="0.4" clip-path="url(#SVGID_4_)">
			<g>
				<defs>
					<rect id="SVGID_17_" x="511.348" y="284.429" width="29.529" height="89.384"/>
				</defs>
				<clipPath id="SVGID_18_">
					<use xlink:href="#SVGID_17_"  overflow="visible"/>
				</clipPath>
				<polygon clip-path="url(#SVGID_18_)" fill="#FFFFFF" points="511.349,356.765 540.877,373.813 540.877,284.429 511.349,292.387 
									"/>
			</g>
		</g>
		<g opacity="0.4" clip-path="url(#SVGID_4_)">
			<g>
				<defs>
					<rect id="SVGID_19_" x="479.425" y="255.867" width="29.529" height="99.516"/>
				</defs>
				<clipPath id="SVGID_20_">
					<use xlink:href="#SVGID_19_"  overflow="visible"/>
				</clipPath>
				<polygon clip-path="url(#SVGID_20_)" fill="#FFFFFF" points="508.954,355.383 479.425,338.334 479.425,255.867 508.954,288.345 
									"/>
			</g>
		</g>
		<g opacity="0.4" clip-path="url(#SVGID_4_)">
			<g>
				<defs>
					<rect id="SVGID_21_" x="447.503" y="255.549" width="29.528" height="81.403"/>
				</defs>
				<clipPath id="SVGID_22_">
					<use xlink:href="#SVGID_21_"  overflow="visible"/>
				</clipPath>
				<polygon clip-path="url(#SVGID_22_)" fill="#FFFFFF" points="447.503,319.904 477.031,336.952 477.031,255.549 447.503,294.897 
									"/>
			</g>
		</g>
		<g opacity="0.4" clip-path="url(#SVGID_4_)">
			<g>
				<defs>
					<rect id="SVGID_23_" x="575.194" y="269.659" width="29.527" height="141.015"/>
				</defs>
				<clipPath id="SVGID_24_">
					<use xlink:href="#SVGID_23_"  overflow="visible"/>
				</clipPath>
				<polygon clip-path="url(#SVGID_24_)" fill="#FFFFFF" points="604.723,410.675 575.193,393.627 575.193,269.66 604.723,307.458 
									"/>
			</g>
		</g>
		<polyline clip-path="url(#SVGID_4_)" fill="none" stroke="#FFFFFF" stroke-width="3.033" stroke-miterlimit="10" points="
			447.303,294.516 478.228,254.644 511.548,291.172 542.672,282.54 573.997,268.436 604.722,307.457 635.448,290.614 		"/>
		<path clip-path="url(#SVGID_4_)" fill="#FFFFFF" d="M481.819,258.313c0,2.645-1.607,3.86-3.591,2.715
			c-1.984-1.145-3.592-4.217-3.592-6.862c0-2.644,1.607-3.86,3.592-2.715C480.212,252.596,481.819,255.668,481.819,258.313"/>
		<path clip-path="url(#SVGID_4_)" fill="#FFFFFF" d="M545.665,284.534c0,2.645-1.607,3.86-3.591,2.715
			c-1.984-1.146-3.592-4.217-3.592-6.862c0-2.644,1.607-3.86,3.592-2.715C544.058,278.817,545.665,281.889,545.665,284.534"/>
		<path clip-path="url(#SVGID_4_)" fill="#FFFFFF" d="M577.189,271.343c0,2.645-1.608,3.86-3.592,2.715s-3.592-4.217-3.592-6.862
			c0-2.644,1.608-3.86,3.592-2.715S577.189,268.698,577.189,271.343"/>
		<path clip-path="url(#SVGID_4_)" fill="#FFFFFF" d="M639.04,292.688c0,2.645-1.608,3.86-3.592,2.715s-3.592-4.217-3.592-6.862
			c0-2.644,1.608-3.86,3.592-2.715S639.04,290.042,639.04,292.688"/>
		<path clip-path="url(#SVGID_4_)" fill="#FFFFFF" d="M451.094,296.971c0,2.645-1.608,3.86-3.591,2.715
			c-1.984-1.145-3.592-4.217-3.592-6.862c0-2.644,1.607-3.86,3.592-2.715C449.485,291.254,451.094,294.326,451.094,296.971"/>
		<path clip-path="url(#SVGID_4_)" fill="#FFFFFF" d="M513.742,291.642c0,2.645-1.607,3.86-3.591,2.715
			c-1.984-1.145-3.592-4.217-3.592-6.862c0-2.644,1.607-3.86,3.592-2.715C512.135,285.924,513.742,288.997,513.742,291.642"/>
		<path clip-path="url(#SVGID_4_)" fill="#FFFFFF" d="M609.112,309.992c0,2.645-1.608,3.86-3.592,2.715s-3.592-4.217-3.592-6.862
			c0-2.644,1.608-3.86,3.592-2.715C607.504,304.274,609.112,307.347,609.112,309.992"/>
		<path clip-path="url(#SVGID_4_)" fill="#FFFFFF" d="M639.401,455.702L444.348,343.088c-5.089-2.939-9.215,0.181-9.215,6.966
			v94.073c0,6.785,4.126,14.669,9.215,17.606L639.401,574.35c5.089,2.938,9.215-0.181,9.215-6.967V473.31
			C648.616,466.524,644.49,458.641,639.401,455.702"/>
		<g opacity="0.36" clip-path="url(#SVGID_4_)">
			<g>
				<defs>
					<rect id="SVGID_25_" x="447.103" y="367.011" width="60.256" height="44.926"/>
				</defs>
				<clipPath id="SVGID_26_">
					<use xlink:href="#SVGID_25_"  overflow="visible"/>
				</clipPath>
				<path clip-path="url(#SVGID_26_)" fill="#3FA9F5" d="M501.572,411.242l-48.683-28.107c-3.196-1.845-5.786-6.794-5.786-11.055
					s2.59-6.219,5.786-4.374l48.683,28.106c3.195,1.846,5.785,6.794,5.785,11.056C507.357,411.129,504.768,413.087,501.572,411.242"
					/>
			</g>
		</g>
		<g opacity="0.42" clip-path="url(#SVGID_4_)">
			<g>
				<defs>
					<rect id="SVGID_27_" x="511.348" y="404.104" width="60.256" height="44.925"/>
				</defs>
				<clipPath id="SVGID_28_">
					<use xlink:href="#SVGID_27_"  overflow="visible"/>
				</clipPath>
				<g clip-path="url(#SVGID_28_)">
					<defs>
						<path id="SVGID_29_" d="M565.817,448.333l-48.684-28.105c-3.194-1.846-5.786-6.795-5.786-11.057
							c0-4.26,2.592-6.219,5.786-4.374l48.684,28.107c3.194,1.845,5.786,6.795,5.786,11.055
							C571.604,448.22,569.012,450.178,565.817,448.333"/>
					</defs>
					<clipPath id="SVGID_30_">
						<use xlink:href="#SVGID_29_"  overflow="visible"/>
					</clipPath>
					
						<linearGradient id="SVGID_31_" gradientUnits="userSpaceOnUse" x1="0" y1="688.9521" x2="1" y2="688.9521" gradientTransform="matrix(12.0147 -22.5276 -22.5276 -12.0147 16055.7676 8715.6465)">
						<stop  offset="0" style="stop-color:#F477BB"/>
						<stop  offset="0.0181" style="stop-color:#F477BB"/>
						<stop  offset="1" style="stop-color:#F695CC"/>
					</linearGradient>
					<polygon clip-path="url(#SVGID_30_)" fill="url(#SVGID_31_)" points="491.738,439.72 524.691,377.933 591.213,413.41 
						558.26,475.197 					"/>
				</g>
			</g>
		</g>
		<path clip-path="url(#SVGID_4_)" fill="#DFE6FD" d="M569.208,472.638l-119.711-69.115c-1.321-0.763-2.394-2.811-2.394-4.574
			s1.072-2.573,2.394-1.811l119.711,69.115c1.322,0.764,2.395,2.812,2.395,4.575C571.603,472.591,570.53,473.4,569.208,472.638"/>
		<path clip-path="url(#SVGID_4_)" fill="#DFE6FD" d="M569.208,494.983l-119.711-69.114c-1.321-0.764-2.394-2.812-2.394-4.575
			c0-1.763,1.072-2.573,2.394-1.811l119.711,69.115c1.322,0.765,2.395,2.813,2.395,4.575S570.53,495.747,569.208,494.983"/>
		<path clip-path="url(#SVGID_4_)" fill="#DFE6FD" d="M523.719,491.066l-74.222-42.852c-1.321-0.764-2.394-2.812-2.394-4.574
			c0-1.764,1.072-2.573,2.394-1.811l74.222,42.851c1.321,0.765,2.394,2.813,2.394,4.575
			C526.112,491.02,525.04,491.829,523.719,491.066"/>
		<g opacity="0.36" clip-path="url(#SVGID_4_)">
			<g>
				<defs>
					<rect id="SVGID_32_" x="317.816" y="110.407" width="47.884" height="37.783"/>
				</defs>
				<clipPath id="SVGID_33_">
					<use xlink:href="#SVGID_32_"  overflow="visible"/>
				</clipPath>
				<path clip-path="url(#SVGID_33_)" fill="#3FA9F5" d="M359.914,147.496l-36.312-20.965c-3.196-1.845-5.786-6.794-5.786-11.055
					c0-4.261,2.59-6.219,5.786-4.374l36.312,20.965c3.196,1.845,5.786,6.794,5.786,11.055
					C365.7,147.383,363.11,149.341,359.914,147.496"/>
			</g>
		</g>
		<g opacity="0.42" clip-path="url(#SVGID_4_)">
			<g>
				<defs>
					<rect id="SVGID_34_" x="369.691" y="140.357" width="47.884" height="37.783"/>
				</defs>
				<clipPath id="SVGID_35_">
					<use xlink:href="#SVGID_34_"  overflow="visible"/>
				</clipPath>
				<g clip-path="url(#SVGID_35_)">
					<defs>
						<path id="SVGID_36_" d="M411.789,177.445l-36.312-20.964c-3.196-1.845-5.786-6.795-5.786-11.056
							c0-4.26,2.59-6.219,5.786-4.374l36.312,20.965c3.195,1.845,5.786,6.795,5.786,11.055
							C417.575,177.332,414.984,179.29,411.789,177.445"/>
					</defs>
					<clipPath id="SVGID_37_">
						<use xlink:href="#SVGID_36_"  overflow="visible"/>
					</clipPath>
					
						<linearGradient id="SVGID_38_" gradientUnits="userSpaceOnUse" x1="0" y1="688.9521" x2="1" y2="688.9521" gradientTransform="matrix(24.7791 -36.0423 -36.0423 -24.7791 25214.7031 17245.9531)">
						<stop  offset="0" style="stop-color:#F477BB"/>
						<stop  offset="0.0181" style="stop-color:#F477BB"/>
						<stop  offset="1" style="stop-color:#F695CC"/>
					</linearGradient>
					<polygon clip-path="url(#SVGID_37_)" fill="url(#SVGID_38_)" points="350.978,166.425 385.06,116.852 436.288,152.071 
						402.207,201.645 					"/>
				</g>
			</g>
		</g>
		<path clip-path="url(#SVGID_4_)" fill="#DFE6FD" d="M415.181,201.75l-94.97-54.831c-1.323-0.764-2.396-2.812-2.396-4.575
			c0-1.763,1.072-2.573,2.396-1.81l94.97,54.831c1.322,0.764,2.394,2.812,2.394,4.575
			C417.575,201.703,416.503,202.513,415.181,201.75"/>
		<path clip-path="url(#SVGID_4_)" fill="#DFE6FD" d="M415.181,218.775l-94.97-54.831c-1.323-0.764-2.396-2.812-2.396-4.575
			c0-1.763,1.072-2.573,2.396-1.81l94.97,54.831c1.322,0.764,2.394,2.812,2.394,4.575
			C417.575,218.728,416.503,219.538,415.181,218.775"/>
		<path clip-path="url(#SVGID_4_)" fill="#DFE6FD" d="M415.181,252.826l-94.97-54.831c-1.323-0.764-2.396-2.812-2.396-4.575
			c0-1.763,1.072-2.573,2.396-1.81l94.97,54.831c1.322,0.764,2.394,2.812,2.394,4.575
			C417.575,252.779,416.503,253.589,415.181,252.826"/>
		<path clip-path="url(#SVGID_4_)" fill="#DFE6FD" d="M415.181,269.852l-94.97-54.831c-1.323-0.764-2.396-2.812-2.396-4.575
			s1.072-2.573,2.396-1.81l94.97,54.831c1.322,0.764,2.394,2.812,2.394,4.575C417.575,269.805,416.503,270.615,415.181,269.852"/>
		<path clip-path="url(#SVGID_4_)" fill="#DFE6FD" d="M385.253,218.522L320.21,180.97c-1.322-0.764-2.394-2.812-2.394-4.575
			s1.072-2.573,2.394-1.81l65.043,37.552c1.322,0.764,2.394,2.812,2.394,4.575C387.647,218.475,386.575,219.285,385.253,218.522"/>
		<g opacity="0.36" clip-path="url(#SVGID_4_)">
			<g>
				<defs>
					<rect id="SVGID_39_" x="317.816" y="237.566" width="47.884" height="37.783"/>
				</defs>
				<clipPath id="SVGID_40_">
					<use xlink:href="#SVGID_39_"  overflow="visible"/>
				</clipPath>
				<path clip-path="url(#SVGID_40_)" fill="#3FA9F5" d="M359.914,274.655l-36.312-20.965c-3.196-1.845-5.786-6.794-5.786-11.055
					c0-4.261,2.59-6.219,5.786-4.374l36.312,20.965c3.196,1.845,5.786,6.794,5.786,11.055
					C365.7,274.542,363.11,276.5,359.914,274.655"/>
			</g>
		</g>
		<g opacity="0.42" clip-path="url(#SVGID_4_)">
			<g>
				<defs>
					<rect id="SVGID_41_" x="369.691" y="267.516" width="47.884" height="37.783"/>
				</defs>
				<clipPath id="SVGID_42_">
					<use xlink:href="#SVGID_41_"  overflow="visible"/>
				</clipPath>
				<g clip-path="url(#SVGID_42_)">
					<defs>
						<path id="SVGID_43_" d="M411.789,304.605l-36.312-20.965c-3.196-1.845-5.786-6.795-5.786-11.055
							c0-4.261,2.59-6.22,5.786-4.375l36.312,20.965c3.195,1.845,5.786,6.795,5.786,11.056
							C417.575,304.491,414.984,306.45,411.789,304.605"/>
					</defs>
					<clipPath id="SVGID_44_">
						<use xlink:href="#SVGID_43_"  overflow="visible"/>
					</clipPath>
					
						<linearGradient id="SVGID_45_" gradientUnits="userSpaceOnUse" x1="0" y1="688.9521" x2="1" y2="688.9521" gradientTransform="matrix(6.6811 19.2867 11.572 6.6811 -7582.2798 -4326.1992)">
						<stop  offset="0" style="stop-color:#F477BB"/>
						<stop  offset="0.0181" style="stop-color:#F477BB"/>
						<stop  offset="1" style="stop-color:#F695CC"/>
					</linearGradient>
					<polygon clip-path="url(#SVGID_44_)" fill="url(#SVGID_45_)" points="417.575,266.365 446.903,351.028 369.691,306.45 
						340.363,221.787 					"/>
				</g>
			</g>
		</g>
		<path clip-path="url(#SVGID_4_)" fill="#DFE6FD" d="M415.181,328.909l-94.97-54.831c-1.323-0.764-2.396-2.812-2.396-4.575
			c0-1.763,1.072-2.573,2.396-1.81l94.97,54.831c1.322,0.764,2.394,2.812,2.394,4.575S416.503,329.672,415.181,328.909"/>
		<path clip-path="url(#SVGID_4_)" fill="#DFE6FD" d="M415.181,345.935l-94.97-54.831c-1.323-0.764-2.396-2.812-2.396-4.575
			c0-1.763,1.072-2.573,2.396-1.81l94.97,54.831c1.322,0.764,2.394,2.812,2.394,4.575S416.503,346.697,415.181,345.935"/>
		<path clip-path="url(#SVGID_4_)" fill="#DFE6FD" d="M385.253,345.681l-65.043-37.552c-1.322-0.764-2.394-2.812-2.394-4.575
			c0-1.763,1.072-2.573,2.394-1.81l65.043,37.552c1.322,0.764,2.394,2.812,2.394,4.575
			C387.647,345.634,386.575,346.444,385.253,345.681"/>
		<path clip-path="url(#SVGID_4_)" fill="#DFE6FD" d="M415.181,380.518l-94.97-54.831c-1.323-0.764-2.396-2.812-2.396-4.575
			c0-1.763,1.072-2.573,2.396-1.81l94.97,54.831c1.322,0.764,2.394,2.812,2.394,4.575
			C417.575,380.471,416.503,381.28,415.181,380.518"/>
		<path clip-path="url(#SVGID_4_)" fill="#DFE6FD" d="M415.181,397.543l-94.97-54.831c-1.323-0.764-2.396-2.812-2.396-4.575
			s1.072-2.573,2.396-1.81l94.97,54.831c1.322,0.764,2.394,2.812,2.394,4.575C417.575,397.496,416.503,398.306,415.181,397.543"/>
		<path clip-path="url(#SVGID_4_)" fill="#DFE6FD" d="M385.253,397.29l-65.043-37.552c-1.322-0.765-2.394-2.813-2.394-4.575
			s1.072-2.573,2.394-1.811l65.043,37.553c1.322,0.764,2.394,2.812,2.394,4.574C387.647,397.243,386.575,398.053,385.253,397.29"/>
		<g opacity="0.26" clip-path="url(#SVGID_4_)">
			<g>
				<defs>
					<rect id="SVGID_46_" x="725.468" width="55.98" height="51.682"/>
				</defs>
				<clipPath id="SVGID_47_">
					<use xlink:href="#SVGID_46_"  overflow="visible"/>
				</clipPath>
				<path clip-path="url(#SVGID_47_)" fill="#FFFFFF" d="M738.509,1.791c1.024,0.592,2.021,1.307,2.978,2.116
					c2.973-3.571,8.147-4.087,14.039-0.686c7.405,4.276,13.681,13.433,15.868,22.354c5.629,3.787,10.054,11.745,10.054,18.344
					c0,6.954-4.913,9.755-10.973,6.256c-2.487-1.436-11.912-6.877-14.949-8.631c-3.352-1.935-14.033-8.101-17.017-9.824
					c-7.202-4.159-13.041-14.229-13.041-22.494C725.468,0.962,731.307-2.367,738.509,1.791"/>
			</g>
		</g>
		<g opacity="0.11" clip-path="url(#SVGID_4_)">
			<g>
				<defs>
					<rect id="SVGID_48_" x="122.468" y="130" width="55.98" height="51.682"/>
				</defs>
				<clipPath id="SVGID_49_">
					<use xlink:href="#SVGID_48_"  overflow="visible"/>
				</clipPath>
				<path clip-path="url(#SVGID_49_)" fill="#FFFFFF" d="M135.508,131.791c1.025,0.592,2.021,1.307,2.978,2.116
					c2.973-3.571,8.147-4.087,14.039-0.686c7.405,4.276,13.681,13.433,15.868,22.354c5.629,3.787,10.054,11.745,10.054,18.344
					c0,6.954-4.913,9.755-10.973,6.256c-2.487-1.436-11.912-6.877-14.949-8.631c-3.352-1.935-14.033-8.101-17.017-9.824
					c-7.202-4.159-13.041-14.229-13.041-22.494C122.467,130.962,128.306,127.633,135.508,131.791"/>
			</g>
		</g>
		<g opacity="0.12" clip-path="url(#SVGID_4_)">
			<g>
				<defs>
					<rect id="SVGID_50_" x="592.49" y="41.33" width="55.98" height="51.682"/>
				</defs>
				<clipPath id="SVGID_51_">
					<use xlink:href="#SVGID_50_"  overflow="visible"/>
				</clipPath>
				<path clip-path="url(#SVGID_51_)" fill="#FFFFFF" d="M605.531,43.121c1.025,0.592,2.021,1.307,2.978,2.116
					c2.974-3.571,8.147-4.087,14.039-0.686c7.405,4.276,13.682,13.433,15.868,22.354c5.629,3.787,10.054,11.745,10.054,18.344
					c0,6.954-4.912,9.755-10.973,6.256c-2.487-1.436-11.912-6.877-14.949-8.631c-3.352-1.935-14.032-8.101-17.017-9.824
					c-7.202-4.159-13.041-14.229-13.041-22.494C592.49,42.292,598.329,38.963,605.531,43.121"/>
			</g>
		</g>
		<g opacity="0.42" clip-path="url(#SVGID_4_)">
			<g>
				<defs>
					<rect id="SVGID_52_" x="269.443" y="539.346" width="111.524" height="46.827"/>
				</defs>
				<clipPath id="SVGID_53_">
					<use xlink:href="#SVGID_52_"  overflow="visible"/>
				</clipPath>
				<path clip-path="url(#SVGID_53_)" fill="#9FCFE2" d="M271.677,553.542c-7.779,4.806,6.682,18.316,14.009,21.768
					c7.327,3.444,13.763,9.559,39.657,10.775c27.583,1.289,87.067-11.64,34.913-28.235
					C338.815,551.024,321.893,522.507,271.677,553.542"/>
			</g>
		</g>
		<g opacity="0.12" clip-path="url(#SVGID_4_)">
			<g>
				<defs>
					<rect id="SVGID_54_" x="56.639" y="488.274" width="101.493" height="36.368"/>
				</defs>
				<clipPath id="SVGID_55_">
					<use xlink:href="#SVGID_54_"  overflow="visible"/>
				</clipPath>
				<path clip-path="url(#SVGID_55_)" fill="#3FA9F5" d="M56.639,506.458c0-10.043,22.72-18.184,50.746-18.184
					c28.027,0,50.747,8.141,50.747,18.184s-22.72,18.185-50.747,18.185C79.359,524.643,56.639,516.501,56.639,506.458"/>
			</g>
		</g>
		<path clip-path="url(#SVGID_4_)" fill="#A9D3ED" d="M79.452,468.26l4.524,35.95l0.026,0.22
			c0.784,6.709,11.105,12.029,23.728,12.029c12.467,0,22.686-5.191,23.688-11.785v-0.014l0.065-0.54l4.524-35.86H79.452z"/>
		<path clip-path="url(#SVGID_4_)" fill="#EDF6FE" d="M78.167,465.042c0,3.11,2.519,5.95,6.722,8.162
			c5.424,2.865,13.638,4.69,22.841,4.69c9.267,0,17.532-1.85,22.956-4.755c4.139-2.198,6.607-5.013,6.607-8.098
			c0-7.096-13.239-12.854-29.563-12.854C91.407,452.188,78.167,457.946,78.167,465.042"/>
		<g opacity="0.4" clip-path="url(#SVGID_4_)">
			<g>
				<defs>
					<rect id="SVGID_56_" x="79.967" y="462.145" width="55.642" height="15.085"/>
				</defs>
				<clipPath id="SVGID_57_">
					<use xlink:href="#SVGID_56_"  overflow="visible"/>
				</clipPath>
				<path clip-path="url(#SVGID_57_)" fill="#FFFFFF" d="M79.967,471.529c6.59,3.482,16.569,5.7,27.751,5.7
					c11.259,0,21.3-2.249,27.891-5.778c-0.672-5.199-12.884-9.308-27.829-9.308C92.757,462.144,80.529,466.299,79.967,471.529"/>
			</g>
		</g>
	</g>
	<g clip-path="url(#SVGID_2_)">
		<defs>
			<path id="SVGID_58_" d="M91.495,440.466v34.705c0,0.251,0.203,0.454,0.454,0.454c0.252,0,0.455-0.203,0.455-0.454v-34.705
				c0-0.252-0.203-0.454-0.455-0.454C91.698,440.012,91.495,440.214,91.495,440.466"/>
		</defs>
		<clipPath id="SVGID_59_">
			<use xlink:href="#SVGID_58_"  overflow="visible"/>
		</clipPath>
		<defs>
			<filter id="Adobe_OpacityMaskFilter" filterUnits="userSpaceOnUse" x="91.495" y="440.012" width="0.909" height="35.613">
				<feColorMatrix  type="matrix" values="1 0 0 0 0  0 1 0 0 0  0 0 1 0 0  0 0 0 1 0"/>
			</filter>
		</defs>
		<mask maskUnits="userSpaceOnUse" x="91.495" y="440.012" width="0.909" height="35.613" id="SVGID_60_">
			<g filter="url(#Adobe_OpacityMaskFilter)">
				
					<linearGradient id="SVGID_61_" gradientUnits="userSpaceOnUse" x1="-4.882813e-004" y1="688.9521" x2="0.999" y2="688.9521" gradientTransform="matrix(-0.9092 0 0 -0.9092 92.4034 1084.2178)">
					<stop  offset="0" style="stop-color:#FFFFFF"/>
					<stop  offset="1" style="stop-color:#D9D9D9"/>
				</linearGradient>
				<rect x="91.495" y="440.012" clip-path="url(#SVGID_59_)" fill="url(#SVGID_61_)" width="0.909" height="35.613"/>
			</g>
		</mask>
		
			<linearGradient id="SVGID_62_" gradientUnits="userSpaceOnUse" x1="-4.882813e-004" y1="688.9521" x2="0.999" y2="688.9521" gradientTransform="matrix(-0.9092 0 0 -0.9092 92.4034 1084.2178)">
			<stop  offset="0" style="stop-color:#E1EEF9"/>
			<stop  offset="1" style="stop-color:#E1EEF9"/>
		</linearGradient>
		
			<rect x="91.495" y="440.012" clip-path="url(#SVGID_59_)" mask="url(#SVGID_60_)" fill="url(#SVGID_62_)" width="0.909" height="35.613"/>
	</g>
	<g clip-path="url(#SVGID_2_)">
		<defs>
			<path id="SVGID_63_" d="M130.63,440.316l-7.428,33.899c-0.054,0.246,0.102,0.488,0.346,0.541
				c0.034,0.009,0.066,0.012,0.098,0.012c0.21,0,0.398-0.146,0.444-0.356l7.428-33.901c0.054-0.244-0.102-0.487-0.347-0.541
				c-0.032-0.007-0.064-0.01-0.096-0.01C130.864,439.96,130.675,440.104,130.63,440.316"/>
		</defs>
		<clipPath id="SVGID_64_">
			<use xlink:href="#SVGID_63_"  overflow="visible"/>
		</clipPath>
		
			<linearGradient id="SVGID_65_" gradientUnits="userSpaceOnUse" x1="0" y1="688.9512" x2="1" y2="688.9512" gradientTransform="matrix(-8.3367 0 0 -8.3367 131.5244 6200.9512)">
			<stop  offset="0" style="stop-color:#F477BB"/>
			<stop  offset="0.0181" style="stop-color:#F477BB"/>
			<stop  offset="1" style="stop-color:#F695CC"/>
		</linearGradient>
		<rect x="123.148" y="439.96" clip-path="url(#SVGID_64_)" fill="url(#SVGID_65_)" width="8.424" height="34.809"/>
	</g>
	<g clip-path="url(#SVGID_2_)">
		<defs>
			<path id="SVGID_66_" d="M40.446,353.397c4.383,8.021,10.321,15.669,12.262,24.78c1.376,6.376,0.206,12.906,1.658,19.358
				c3.393,15.141,13.548,27.545,25.617,36.864c0.977,0.758,1.967,1.491,2.969,2.21c6.452,4.602,7.52,11.659,8.907,19.435
				c-0.822-12.313,5.913-24.446,2.828-36.71c-2.082-8.315-8.508-14.716-13.47-21.722c-13.522-19.075-11.838-52.699-39.332-59.665
				c-0.449-0.103-0.899-0.207-1.349-0.309c-0.788-0.169-1.472-0.248-2.062-0.248C31.059,337.391,38.493,349.861,40.446,353.397"/>
		</defs>
		<clipPath id="SVGID_67_">
			<use xlink:href="#SVGID_66_"  overflow="visible"/>
		</clipPath>
		<defs>
			<filter id="Adobe_OpacityMaskFilter_1_" filterUnits="userSpaceOnUse" x="31.059" y="337.391" width="66.713" height="118.654">
				<feColorMatrix  type="matrix" values="1 0 0 0 0  0 1 0 0 0  0 0 1 0 0  0 0 0 1 0"/>
			</filter>
		</defs>
		<mask maskUnits="userSpaceOnUse" x="31.059" y="337.391" width="66.713" height="118.654" id="SVGID_68_">
			<g filter="url(#Adobe_OpacityMaskFilter_1_)">
				
					<linearGradient id="SVGID_69_" gradientUnits="userSpaceOnUse" x1="0" y1="688.9521" x2="1" y2="688.9521" gradientTransform="matrix(-60.2502 0 0 -60.2502 95.513 41906.1914)">
					<stop  offset="0" style="stop-color:#FFFFFF"/>
					<stop  offset="1" style="stop-color:#D9D9D9"/>
				</linearGradient>
				<rect x="31.059" y="337.39" clip-path="url(#SVGID_67_)" fill="url(#SVGID_69_)" width="66.713" height="118.654"/>
			</g>
		</mask>
		
			<linearGradient id="SVGID_70_" gradientUnits="userSpaceOnUse" x1="0" y1="688.9521" x2="1" y2="688.9521" gradientTransform="matrix(-60.2502 0 0 -60.2502 95.5147 41906.1914)">
			<stop  offset="0" style="stop-color:#E1EEF9"/>
			<stop  offset="1" style="stop-color:#E1EEF9"/>
		</linearGradient>
		
			<rect x="31.059" y="337.391" clip-path="url(#SVGID_67_)" mask="url(#SVGID_68_)" fill="url(#SVGID_70_)" width="66.713" height="118.654"/>
	</g>
	<g clip-path="url(#SVGID_2_)">
		<defs>
			<rect id="SVGID_71_" width="879.856" height="688.952"/>
		</defs>
		<clipPath id="SVGID_72_">
			<use xlink:href="#SVGID_71_"  overflow="visible"/>
		</clipPath>
		<g opacity="0.3" clip-path="url(#SVGID_72_)">
			<g>
				<defs>
					<rect id="SVGID_73_" x="35.685" y="337.825" width="44.732" height="97.008"/>
				</defs>
				<clipPath id="SVGID_74_">
					<use xlink:href="#SVGID_73_"  overflow="visible"/>
				</clipPath>
				<path clip-path="url(#SVGID_74_)" fill="#0C1238" d="M40.88,353.831c4.383,8.021,10.321,15.668,12.262,24.781
					c1.375,6.376,0.206,12.905,1.658,19.357c3.394,15.142,13.548,27.546,25.617,36.863c-0.733-3.033-1.529-5.835-2.172-8.072
					c-2.571-8.996-8.997-11.567-12.854-33.419c-2.609-14.768-15.179-40.089-23.071-54.96c-0.45-0.103-0.9-0.206-1.35-0.308
					C30.276,335.785,38.771,350.015,40.88,353.831"/>
			</g>
		</g>
	</g>
	<g clip-path="url(#SVGID_2_)">
		<defs>
			<path id="SVGID_75_" d="M121.497,419.39l-4.893,24.302c-0.33,1.641-0.671,3.337-0.894,5.038
				c-0.283,2.177-0.374,4.386-0.463,6.523l-0.869,20.913c-0.01,0.25,0.185,0.462,0.437,0.473h0.018c0.243,0,0.444-0.189,0.454-0.436
				l0.869-20.913c0.087-2.117,0.178-4.307,0.456-6.444c0.218-1.668,0.556-3.35,0.884-4.976l4.893-24.302
				c0.05-0.246-0.11-0.485-0.356-0.536c-0.03-0.006-0.06-0.009-0.089-0.009C121.734,419.023,121.542,419.172,121.497,419.39"/>
		</defs>
		<clipPath id="SVGID_76_">
			<use xlink:href="#SVGID_75_"  overflow="visible"/>
		</clipPath>
		<defs>
			<filter id="Adobe_OpacityMaskFilter_2_" filterUnits="userSpaceOnUse" x="114.368" y="419.023" width="8.071" height="57.615">
				<feColorMatrix  type="matrix" values="1 0 0 0 0  0 1 0 0 0  0 0 1 0 0  0 0 0 1 0"/>
			</filter>
		</defs>
		<mask maskUnits="userSpaceOnUse" x="114.368" y="419.023" width="8.071" height="57.615" id="SVGID_77_">
			<g filter="url(#Adobe_OpacityMaskFilter_2_)">
				
					<linearGradient id="SVGID_78_" gradientUnits="userSpaceOnUse" x1="0" y1="688.9521" x2="1" y2="688.9521" gradientTransform="matrix(-8.02 0 0 -8.02 122.3966 5973.2466)">
					<stop  offset="0" style="stop-color:#FFFFFF"/>
					<stop  offset="1" style="stop-color:#D9D9D9"/>
				</linearGradient>
				<rect x="114.368" y="419.023" clip-path="url(#SVGID_76_)" fill="url(#SVGID_78_)" width="8.071" height="57.616"/>
			</g>
		</mask>
		
			<linearGradient id="SVGID_79_" gradientUnits="userSpaceOnUse" x1="0" y1="688.9521" x2="1" y2="688.9521" gradientTransform="matrix(-8.02 0 0 -8.02 122.397 5973.2471)">
			<stop  offset="0" style="stop-color:#E1EEF9"/>
			<stop  offset="1" style="stop-color:#E1EEF9"/>
		</linearGradient>
		
			<rect x="114.368" y="419.023" clip-path="url(#SVGID_76_)" mask="url(#SVGID_77_)" fill="url(#SVGID_79_)" width="8.071" height="57.615"/>
	</g>
	<g clip-path="url(#SVGID_2_)">
		<defs>
			<path id="SVGID_80_" d="M148.871,319.083c-4.628,10.577-8.085,21.657-13.458,31.901c-6.453,12.288-14.37,25.564-16.093,39.576
				c-2.249,18.315-0.964,39.523,9.962,25.732c2.288-2.892,4.28-5.977,6.08-9.204c5.681-10.205,9.344-21.709,14.087-32.223
				c6.799-15.065,14.589-30.077,17.134-46.581c1.195-7.841,1.541-15.809,1.169-23.714c-0.025-0.399-0.54-5.322-0.771-8.021
				c-0.09-1.028-0.142-1.735-0.103-1.748C157.713,298.028,152.431,310.933,148.871,319.083"/>
		</defs>
		<clipPath id="SVGID_81_">
			<use xlink:href="#SVGID_80_"  overflow="visible"/>
		</clipPath>
		<defs>
			<filter id="Adobe_OpacityMaskFilter_3_" filterUnits="userSpaceOnUse" x="117.071" y="294.802" width="51.053" height="135.282">
				<feColorMatrix  type="matrix" values="1 0 0 0 0  0 1 0 0 0  0 0 1 0 0  0 0 0 1 0"/>
			</filter>
		</defs>
		<mask maskUnits="userSpaceOnUse" x="117.071" y="294.802" width="51.053" height="135.282" id="SVGID_82_">
			<g filter="url(#Adobe_OpacityMaskFilter_3_)">
				
					<linearGradient id="SVGID_83_" gradientUnits="userSpaceOnUse" x1="0" y1="688.8584" x2="1" y2="688.8584" gradientTransform="matrix(-49.5047 0 0 -49.5047 167.8915 34464.1016)">
					<stop  offset="0" style="stop-color:#FFFFFF"/>
					<stop  offset="1" style="stop-color:#D9D9D9"/>
				</linearGradient>
				<rect x="117.071" y="294.802" clip-path="url(#SVGID_81_)" fill="url(#SVGID_83_)" width="51.053" height="135.282"/>
			</g>
		</mask>
		
			<linearGradient id="SVGID_84_" gradientUnits="userSpaceOnUse" x1="0" y1="688.8574" x2="1" y2="688.8574" gradientTransform="matrix(-49.5047 0 0 -49.5047 167.8932 34464.1016)">
			<stop  offset="0" style="stop-color:#E1EEF9"/>
			<stop  offset="1" style="stop-color:#E1EEF9"/>
		</linearGradient>
		
			<rect x="117.071" y="294.802" clip-path="url(#SVGID_81_)" mask="url(#SVGID_82_)" fill="url(#SVGID_84_)" width="51.053" height="135.282"/>
	</g>
	<g clip-path="url(#SVGID_2_)">
		<defs>
			<rect id="SVGID_85_" width="879.856" height="688.952"/>
		</defs>
		<clipPath id="SVGID_86_">
			<use xlink:href="#SVGID_85_"  overflow="visible"/>
		</clipPath>
		<g opacity="0.3" clip-path="url(#SVGID_86_)">
			<g>
				<defs>
					<rect id="SVGID_87_" x="132.632" y="296.55" width="35.263" height="110.54"/>
				</defs>
				<clipPath id="SVGID_88_">
					<use xlink:href="#SVGID_87_"  overflow="visible"/>
				</clipPath>
				<path clip-path="url(#SVGID_88_)" fill="#0C1238" d="M132.637,395.021c-0.09,6.504,1.041,10.23,2.725,12.068
					c5.681-10.205,9.344-21.709,14.087-32.223c6.8-15.063,14.589-30.077,17.134-46.581c1.195-7.841,1.542-15.81,1.17-23.715
					c-0.026-0.398-0.54-5.321-0.772-8.02c-1.902,3.072-3.856,6.864-5.719,11.529C153.55,327.36,132.945,374.005,132.637,395.021"/>
			</g>
		</g>
	</g>
	<g clip-path="url(#SVGID_2_)">
		<defs>
			<path id="SVGID_89_" d="M107.113,417.748c-0.246,0.049-0.406,0.289-0.356,0.535l4.892,24.302
				c0.327,1.625,0.666,3.307,0.883,4.976c0.28,2.139,0.37,4.327,0.458,6.443l0.868,20.914c0.011,0.244,0.212,0.436,0.455,0.436
				h0.018c0.252-0.012,0.446-0.223,0.436-0.474l-0.868-20.914c-0.089-2.136-0.18-4.346-0.465-6.522
				c-0.221-1.701-0.563-3.398-0.894-5.038l-4.892-24.302c-0.043-0.216-0.236-0.364-0.446-0.364
				C107.173,417.739,107.143,417.742,107.113,417.748"/>
		</defs>
		<clipPath id="SVGID_90_">
			<use xlink:href="#SVGID_89_"  overflow="visible"/>
		</clipPath>
		
			<linearGradient id="SVGID_91_" gradientUnits="userSpaceOnUse" x1="0" y1="688.9512" x2="1" y2="688.9512" gradientTransform="matrix(-8.02 0 0 -8.02 114.7642 5971.958)">
			<stop  offset="0" style="stop-color:#01C3FA"/>
			<stop  offset="0.0181" style="stop-color:#01C3FA"/>
			<stop  offset="1" style="stop-color:#01A1F3"/>
		</linearGradient>
		<rect x="106.707" y="417.739" clip-path="url(#SVGID_90_)" fill="url(#SVGID_91_)" width="8.07" height="57.614"/>
	</g>
	<g clip-path="url(#SVGID_2_)">
		<defs>
			<rect id="SVGID_92_" width="879.856" height="688.952"/>
		</defs>
		<clipPath id="SVGID_93_">
			<use xlink:href="#SVGID_92_"  overflow="visible"/>
		</clipPath>
		<path clip-path="url(#SVGID_93_)" fill="#8DD4FF" d="M102.032,418.911c-2.288-2.893-4.28-5.978-6.08-9.203
			c-5.681-10.206-9.344-21.709-14.087-32.225c-6.799-15.063-14.589-30.076-17.134-46.58c-1.195-7.841-1.542-15.81-1.169-23.715
			c0.025-0.398,0.54-5.321,0.771-8.02c0.09-1.029,0.141-1.736,0.103-1.749c9.164,3.227,14.447,16.132,18.007,24.281
			c4.628,10.578,8.085,21.658,13.458,31.902c6.452,12.288,14.37,25.565,16.092,39.575
			C114.243,411.495,112.957,432.703,102.032,418.911"/>
		<g opacity="0.29" clip-path="url(#SVGID_93_)">
			<g>
				<defs>
					<rect id="SVGID_94_" x="63.419" y="299.168" width="35.263" height="110.54"/>
				</defs>
				<clipPath id="SVGID_95_">
					<use xlink:href="#SVGID_94_"  overflow="visible"/>
				</clipPath>
				<path clip-path="url(#SVGID_95_)" fill="#0C1238" d="M98.677,397.639c0.09,6.504-1.041,10.23-2.725,12.068
					c-5.681-10.205-9.344-21.709-14.087-32.223c-6.8-15.064-14.589-30.077-17.134-46.581c-1.195-7.841-1.542-15.81-1.17-23.715
					c0.026-0.398,0.54-5.321,0.772-8.02c1.902,3.072,3.856,6.864,5.719,11.529C77.764,329.979,98.369,376.623,98.677,397.639"/>
			</g>
		</g>
		<path clip-path="url(#SVGID_93_)" fill="#D6BBEA" d="M200.019,366.386c-5.998,6.896-13.436,13.096-17.282,21.583
			c-2.708,5.933-2.963,12.561-5.763,18.553c-6.555,14.065-19.129,24.008-32.913,30.527c-1.116,0.531-2.24,1.035-3.373,1.523
			c-7.288,3.114-9.841,9.779-12.861,17.078c3.439-11.852-0.543-25.146,5.095-36.464c3.814-7.678,11.461-12.555,17.807-18.336
			c17.291-15.738,22.843-48.944,51.191-49.865c0.461-0.004,0.922-0.008,1.384-0.012C214.24,351.027,202.895,363.107,200.019,366.386
			"/>
		<path clip-path="url(#SVGID_93_)" fill="#FFFFFF" d="M466.966,618.075c-0.045,0.124-0.105,0.258-0.189,0.392
			c-2.412,3.857-5.463,2.799-11.539,3.843c-6.077,1.044-1.214,0.7-1.199,3.157c0.019,2.46-2.104,4.387-8.495,3.85
			c-0.724-0.061-1.358-0.081-1.896-0.06l-0.036-6.795c-0.014-2.443,3.417-4.423,7.648-4.415L466.966,618.075z"/>
		<g opacity="0.1" clip-path="url(#SVGID_93_)">
			<g>
				<defs>
					<rect id="SVGID_96_" x="390.219" y="626.436" width="20.648" height="11.921"/>
				</defs>
				<clipPath id="SVGID_97_">
					<use xlink:href="#SVGID_96_"  overflow="visible"/>
				</clipPath>
				<path clip-path="url(#SVGID_97_)" fill="#0A0A05" d="M407.82,628.194c4.044,2.335,4.065,6.109,0.046,8.429
					c-4.019,2.321-10.556,2.31-14.6-0.025c-4.045-2.335-4.065-6.109-0.046-8.43S403.776,625.859,407.82,628.194"/>
			</g>
		</g>
		<path clip-path="url(#SVGID_93_)" fill="#D1AEED" d="M407.82,619.215c4.044,2.335,4.065,6.108,0.046,8.429
			c-4.019,2.321-10.556,2.31-14.6-0.026c-4.045-2.335-4.065-6.108-0.046-8.429C397.239,616.867,403.776,616.88,407.82,619.215"/>
		<path clip-path="url(#SVGID_93_)" fill="#FF9C32" d="M390.657,412.066c0-0.454,0-0.826,0.006-1.249
			c-2.243-0.049-4.386,0.165-6.448,0.531c0.198,8.167-213.309,91.216-245.352,122.387c-3.846,3.746-1.926,12.645-2.386,15.888
			c-4.224,30.144,9.456,42.875,11.965,44.798c12.326,9.502,159.261,91.388,159.261,91.388l251.614-142.127v-7.549l-153.365-88.557
			C392.086,439.574,390.657,429.613,390.657,412.066"/>
		<polygon clip-path="url(#SVGID_93_)" fill="#D9D7F4" points="152.095,584.819 308.02,674.844 308.02,625.67 152.095,535.646 		"/>
		<polygon clip-path="url(#SVGID_93_)" fill="#F2F0FC" points="308.02,674.844 549.812,535.242 549.812,486.087 308.02,625.67 		"/>
		<path clip-path="url(#SVGID_93_)" fill="#FFB776" d="M389.831,384.499l-0.074-0.041L138.863,529.2l19.824,8.582l149.016,82.69
			l251.614-145.273l-153.365-88.538C398.752,382.511,393.447,381.545,389.831,384.499"/>
		<polygon clip-path="url(#SVGID_93_)" fill="#FFCF4B" points="307.703,628.023 559.316,482.763 559.316,475.2 307.703,620.473 		
			"/>
		<polygon clip-path="url(#SVGID_93_)" fill="#FFCF4B" points="307.703,688.952 559.316,543.681 559.316,536.133 307.703,681.388 		
			"/>
		<path clip-path="url(#SVGID_93_)" fill="#FFCF4B" d="M132.489,553.544c0,25.619,7.02,38.293,21.868,46.848l153.346,88.561v-7.563
			l-153.346-88.546c-13.885-7.995-15.326-17.973-15.326-35.525c0-17.54,1.441-25.837,15.326-17.842l153.346,88.548v-7.551
			l-153.346-88.545C139.509,523.386,132.489,527.936,132.489,553.544"/>
		<g opacity="0.12" clip-path="url(#SVGID_93_)">
			<g>
				<defs>
					<rect id="SVGID_98_" x="187.065" y="383.638" width="216.632" height="201.495"/>
				</defs>
				<clipPath id="SVGID_99_">
					<use xlink:href="#SVGID_98_"  overflow="visible"/>
				</clipPath>
				<path clip-path="url(#SVGID_99_)" d="M365.342,398.271L187.065,501.4c0,4.737,3.597,8.073,6.927,10.126
					c7.324,4.495,124.508,73.606,124.508,73.606h25.098l-1.857-72.149l27.223,3.556l26.657-5.013l8.076-127.888l-32.515,5.245
					L365.342,398.271z"/>
			</g>
		</g>
		<path clip-path="url(#SVGID_93_)" fill="#9EBEC2" d="M403.684,384.563c0-0.323,0.013-0.593,0.013-0.926
			c-1.622-0.012-3.181,0.144-4.679,0.404c0.144,5.91-154.526,66.082-177.736,88.653c-2.789,2.726-1.41,9.18-1.72,11.519
			c-3.075,21.846,6.858,31.067,8.653,32.456c8.927,6.875,115.383,66.196,115.383,66.196L525.87,479.893v-5.46l-111.103-64.14
			C404.715,404.487,403.684,397.274,403.684,384.563"/>
		<polygon clip-path="url(#SVGID_93_)" fill="#D9D7F4" points="230.856,509.712 343.822,574.93 343.822,539.305 230.856,474.094 		
			"/>
		<polygon clip-path="url(#SVGID_93_)" fill="#F2F0FC" points="343.822,574.93 518.992,473.799 518.992,438.183 343.822,539.305 		
			"/>
		<polygon clip-path="url(#SVGID_93_)" fill="#5488D3" points="343.598,541.014 525.87,435.785 525.87,430.309 343.598,535.543 		
			"/>
		<polygon clip-path="url(#SVGID_93_)" fill="#5488D3" points="343.598,585.134 525.87,479.893 525.87,474.433 343.598,579.667 		
			"/>
		<path clip-path="url(#SVGID_93_)" fill="#3E9DE5" d="M216.667,487.062c0,18.566,5.088,27.745,15.829,33.929l111.102,64.144v-5.467
			l-111.102-64.143c-10.045-5.806-11.083-13.013-11.083-25.735c0-12.71,1.038-18.725,11.083-12.918l111.102,64.143v-5.471
			l-111.102-64.14C221.755,465.21,216.667,468.509,216.667,487.062"/>
		<polygon clip-path="url(#SVGID_93_)" fill="#ACDCEF" points="465.568,632.765 462.896,631.863 466.179,648.852 468.463,648.533 		
			"/>
		<polygon clip-path="url(#SVGID_93_)" fill="#ACDCEF" points="462.416,615.984 459.75,615.083 462.635,630.438 465.301,631.342 		
			"/>
		<polygon clip-path="url(#SVGID_93_)" fill="#ACDCEF" points="465.301,631.342 462.635,630.438 445.561,642.752 448.227,643.649 		
			"/>
		<polygon clip-path="url(#SVGID_93_)" fill="#ACDCEF" points="459.276,599.204 456.604,598.303 459.482,613.659 462.147,614.557 		
			"/>
		<polygon clip-path="url(#SVGID_93_)" fill="#ACDCEF" points="462.148,614.557 459.482,613.659 442.415,625.97 445.081,626.871 		
			"/>
		<polygon clip-path="url(#SVGID_93_)" fill="#ACDCEF" points="456.124,582.425 453.452,581.521 456.336,596.879 459.009,597.778 		
			"/>
		<polygon clip-path="url(#SVGID_93_)" fill="#ACDCEF" points="459.009,597.778 456.337,596.878 439.263,609.191 441.935,610.091 		
			"/>
		<polygon clip-path="url(#SVGID_93_)" fill="#ACDCEF" points="452.978,565.639 450.306,564.738 453.189,580.093 455.856,580.996 		
			"/>
		<polygon clip-path="url(#SVGID_93_)" fill="#ACDCEF" points="455.855,580.996 453.189,580.093 436.117,592.406 438.788,593.308 		
			"/>
		<polygon clip-path="url(#SVGID_93_)" fill="#ACDCEF" points="449.831,548.858 447.159,547.955 450.038,563.313 452.716,564.217 		
			"/>
		<polygon clip-path="url(#SVGID_93_)" fill="#ACDCEF" points="452.716,564.216 450.038,563.313 432.97,575.624 435.643,576.527 		
			"/>
		<polygon clip-path="url(#SVGID_93_)" fill="#ACDCEF" points="446.686,532.078 444.014,531.176 446.892,546.532 449.563,547.434 		
			"/>
		<polygon clip-path="url(#SVGID_93_)" fill="#ACDCEF" points="449.563,547.434 446.892,546.532 429.818,558.845 432.497,559.747 		
			"/>
		<polygon clip-path="url(#SVGID_93_)" fill="#ACDCEF" points="443.532,515.296 440.866,514.395 443.745,529.752 446.418,530.65 		
			"/>
		<polygon clip-path="url(#SVGID_93_)" fill="#ACDCEF" points="446.417,530.65 443.745,529.753 426.677,542.063 429.343,542.968 		
			"/>
		<polygon clip-path="url(#SVGID_93_)" fill="#ACDCEF" points="440.393,498.519 437.715,497.615 440.6,512.971 443.271,513.87 		"/>
		<polygon clip-path="url(#SVGID_93_)" fill="#ACDCEF" points="443.271,513.871 440.599,512.97 423.526,525.283 426.198,526.185 		
			"/>
		<polygon clip-path="url(#SVGID_93_)" fill="#C2A07C" points="439.365,485.328 436.699,484.427 435.417,485.345 438.095,486.248 		
			"/>
		<polygon clip-path="url(#SVGID_93_)" fill="#ACDCEF" points="438.095,486.248 435.417,485.345 437.453,496.19 440.125,497.09 		
			"/>
		<polygon clip-path="url(#SVGID_93_)" fill="#ACDCEF" points="440.125,497.09 437.453,496.189 420.385,508.504 423.051,509.405 		
			"/>
		<polygon clip-path="url(#SVGID_93_)" fill="#ACDCEF" points="419.246,496.607 416.868,496.188 446.958,657.962 449.636,658.862 		
			"/>
		<polygon clip-path="url(#SVGID_93_)" fill="#C2A07C" points="420.665,496.146 417.986,495.244 416.716,496.161 419.389,497.063 		
			"/>
		<path clip-path="url(#SVGID_93_)" fill="#3E9DE5" d="M423.051,509.405l17.074-12.315l-2.03-10.842l1.27-0.92l30.059,161.613
			l-0.961,1.592l-2.895-15.77l-17.073,12.317l2.412,12.867l-1.869-1.694l-29.892-159.382l1.527-0.685L423.051,509.405z
			 M445.081,626.87l17.067-12.313l-2.872-15.354l-17.073,12.314L445.081,626.87 M435.642,576.527l17.074-12.312l-2.885-15.357
			l-17.068,12.313L435.642,576.527 M448.227,643.65l17.074-12.309l-2.885-15.357l-17.068,12.313L448.227,643.65 M441.936,610.09
			l17.073-12.312l-2.885-15.354l-17.068,12.312L441.936,610.09 M426.198,526.185l17.073-12.314l-2.879-15.352l-17.074,12.311
			L426.198,526.185 M432.496,559.747l17.068-12.313l-2.879-15.355l-17.074,12.313L432.496,559.747 M429.344,542.967l17.073-12.316
			l-2.885-15.354l-17.073,12.314L429.344,542.967 M438.788,593.308l17.068-12.312l-2.879-15.357l-17.074,12.314L438.788,593.308"/>
		<path clip-path="url(#SVGID_93_)" fill="#8DD9FF" d="M403.095,364.585l-0.062-0.028l-181.75,104.865l14.37,6.222l107.946,59.899
			l182.271-105.234l-111.102-64.152C409.556,363.144,405.709,362.46,403.095,364.585"/>
	</g>
	<g clip-path="url(#SVGID_2_)">
		<defs>
			<path id="SVGID_100_" d="M480.966,468.889L480.966,468.889c-0.012-0.009-0.026-0.017-0.041-0.023L480.966,468.889z"/>
		</defs>
		<clipPath id="SVGID_101_">
			<use xlink:href="#SVGID_100_"  overflow="visible"/>
		</clipPath>
		
			<linearGradient id="SVGID_102_" gradientUnits="userSpaceOnUse" x1="0" y1="688.9521" x2="1" y2="688.9521" gradientTransform="matrix(71.9417 54.0252 -54.0252 71.9417 37626.0586 -49152.2695)">
			<stop  offset="0" style="stop-color:#FE866C"/>
			<stop  offset="1" style="stop-color:#FE3250"/>
		</linearGradient>
		<polygon clip-path="url(#SVGID_101_)" fill="url(#SVGID_102_)" points="480.913,468.881 480.952,468.909 480.979,468.874 
			480.94,468.845 		"/>
	</g>
	<g clip-path="url(#SVGID_2_)">
		<defs>
			<path id="SVGID_103_" d="M480.925,468.865l-0.16-0.094C480.817,468.803,480.871,468.835,480.925,468.865"/>
		</defs>
		<clipPath id="SVGID_104_">
			<use xlink:href="#SVGID_103_"  overflow="visible"/>
		</clipPath>
		
			<linearGradient id="SVGID_105_" gradientUnits="userSpaceOnUse" x1="0" y1="688.9531" x2="1" y2="688.9531" gradientTransform="matrix(85.3259 64.0762 -64.0762 85.3259 44563.457 -58363.8867)">
			<stop  offset="0" style="stop-color:#FEA16C"/>
			<stop  offset="1" style="stop-color:#FE5570"/>
		</linearGradient>
		<polygon clip-path="url(#SVGID_104_)" fill="url(#SVGID_105_)" points="480.72,468.831 480.867,468.942 480.97,468.805 
			480.822,468.694 		"/>
	</g>
	<g clip-path="url(#SVGID_2_)">
		<defs>
			<rect id="SVGID_106_" width="879.856" height="688.952"/>
		</defs>
		<clipPath id="SVGID_107_">
			<use xlink:href="#SVGID_106_"  overflow="visible"/>
		</clipPath>
		<path clip-path="url(#SVGID_107_)" fill-rule="evenodd" clip-rule="evenodd" fill="#1A406B" d="M382.328,355.216
			c4.25,12.438,8.501,24.873,12.751,37.311c0.395,1.155,0.794,2.352,0.594,3.541c-0.29,1.729-1.776,3.132-3.196,4.421
			c-12.46,11.318-24.916,22.686-35.853,35.036c-1.719,1.941-3.545,4.004-6.246,4.894s-6.486-0.046-7.081-2.401
			c-0.612-2.421,2.202-4.366,4.305-6.124c5.878-4.913,7.662-12.143,11.394-18.33c1.997-3.309,4.597-6.367,7.686-9.041
			c1.475-1.275,3.087-2.493,4.076-4.059c1.14-1.801,1.351-3.899,1.366-5.932c0.053-7.127-2.027-14.19-1.777-21.314
			c0.249-7.125,3.542-14.86,11.174-18.158"/>
		<path clip-path="url(#SVGID_107_)" fill-rule="evenodd" clip-rule="evenodd" fill="#47331C" d="M380.554,275.609
			c2.798-0.508,5.323-2.751,5.73-5.566c0.407-2.814-1.703-5.879-4.536-6.12c-1.662-0.141-3.264,0.602-4.921,0.794
			c-2.384,0.277-4.729-0.591-7.065-1.144c-4.206-0.995-8.782-0.941-12.687,0.912c-6.605,3.135-9.943,10.591-11.681,17.694
			c-0.575,2.351-1.143,4.913-2.996,6.469c-2.887,2.425-7.763,1.432-10.324,4.199c-2.059,2.224-1.573,5.712-2.383,8.633
			c-1.633,5.88-8.371,8.978-10.766,14.592c-0.707,1.659-0.999,3.469-1.099,5.269c-0.105,1.879,0.001,3.817,0.748,5.544
			c1.462,3.383,5.19,5.36,8.86,5.697c3.671,0.337,7.321-0.694,10.816-1.866c1.229-0.412,2.478-0.857,3.492-1.666
			c2.679-2.139,2.939-6.022,3.31-9.43c0.39-3.591,1.144-7.142,2.247-10.581c0.509-1.591,1.107-3.183,2.104-4.523
			c1.062-1.43,2.525-2.503,3.968-3.547c4.447-3.217,8.998-6.438,12.406-10.74c1.273-1.607,2.412-3.772,1.522-5.619
			c-0.346-0.717-0.966-1.286-1.239-2.034c-0.396-1.089,0.911-2.233,1.473-3.246c0.438-0.788,0.373-1.177,1.225-1.47
			c0.683-0.234,1.334-0.319,1.716,0.245c0.072,0.107,0.161,0.147,0.245,0.245c0.98,1.156,2.589-2.845,4.373-2.777
			c1.965,0.074,4.008,0.705,5.843-0.002"/>
		<path clip-path="url(#SVGID_107_)" fill-rule="evenodd" clip-rule="evenodd" fill="#FFDFD7" d="M380.576,274.443
			c0.134,1.759-0.193,3.55-0.938,5.149c-0.706,1.515-1.812,3.005-1.612,4.664c0.141,1.176,0.938,2.228,0.923,3.412
			c-0.637,0.506-1.606,0.119-2.367,0.405c-0.944,0.355-1.199,1.529-1.624,2.442c-0.962,2.067-3.533,3.23-5.72,2.587
			c-1.36,1.198-1.196,3.69,0.309,4.7c0.365,0.245,0.79,0.413,1.092,0.733c0.299,0.318,0.443,0.749,0.569,1.167
			c0.834,2.78,1.259,5.689,1.172,8.59c-0.056,1.841-0.318,3.679-0.837,5.447c-0.24,0.816-0.568,1.663-1.248,2.176
			c-0.717,0.541-1.709,0.599-2.578,0.368c-0.868-0.231-1.644-0.716-2.404-1.195c-1.425-0.897-2.849-1.794-4.274-2.691
			c-0.779-0.491-1.581-1.002-2.108-1.757c-0.409-0.587-0.626-1.283-0.837-1.966c-0.718-2.329-1.444-4.738-1.175-7.16
			c0.259-2.328,1.418-4.452,2.662-6.437c1.908-3.04,4.085-5.93,6.68-8.41c0.361-0.345,0.75-0.719,0.836-1.211
			c0.164-0.941-0.819-1.653-1.174-2.539c-0.466-1.162,0.2-2.442,0.845-3.515c0.382-0.633,0.783-1.288,1.401-1.695
			c0.617-0.407,1.516-0.488,2.056,0.017c0.135,0.127,0.261,0.294,0.445,0.315c0.128,0.015,0.252-0.046,0.362-0.115
			c1.093-0.684,1.625-2.188,2.873-2.514c0.631-0.165,1.292,0.024,1.94,0.101c1.516,0.179,3.098-0.298,4.263-1.284"/>
		<path clip-path="url(#SVGID_107_)" fill-rule="evenodd" clip-rule="evenodd" fill="#FFFFFF" d="M368.307,296.919
			c1.771,0.298,4.302,3.658,4.745,5.302c0.487,1.808,0.974,3.615,1.461,5.423c0.426,1.583,0.857,3.177,1.597,4.654
			c1.08,2.154,2.771,3.97,4.297,5.868c0.677,0.843,1.352,1.783,1.354,2.84c0,0.735-0.33,1.434-0.712,2.074
			c-1.968,3.293-5.569,5.674-9.522,6.296c0.213,2.11,2.062,3.677,3.351,5.413c1.707,2.3,2.497,5.085,3.126,7.83
			c0.795,3.473,1.378,7.119,0.389,10.548c-2.94-1.199-6.197-2.418-9.257-1.523c-0.606,0.178-1.216,0.438-1.846,0.366
			c-1.45-0.167-2.003-1.846-2.228-3.207c-0.288-1.731-0.575-3.463-0.862-5.195c-1.045-6.299-2.092-12.647-1.823-19.017
			c0.097-2.309,0.365-4.645-0.11-6.911c-0.143-0.682-0.292-1.531,0.295-1.951c0.255-0.181,0.59-0.225,0.91-0.231
			c1.78-0.035-8.17-13.824-6.445-14.242c1.401-0.34,7.075,4.723,8.303,5.338c1.187,0.593,3.988,1.136,4.745,0
			c1.186-1.78,1.492-2.15,1.082-4.446c-0.354-1.989-0.973-4.188-2.812-5.217L368.307,296.919z"/>
		<path clip-path="url(#SVGID_107_)" fill-rule="evenodd" clip-rule="evenodd" fill="#FFCF4B" d="M418.132,335.934
			c-0.647,2.284-1.419,4.533-2.312,6.732c-0.157,0.386-0.34,0.797-0.7,1.006c-0.326,0.189-0.728,0.171-1.103,0.134
			c-3.458-0.342-6.693-1.801-9.856-3.24c-2.495-1.136-4.99-2.271-7.486-3.407c-6.349-2.89-12.813-5.853-17.964-10.559
			c-1.115-1.018-2.178-2.137-2.842-3.493c-0.489-1-0.745-2.095-0.992-3.18c-1.588-6.973-2.964-13.994-4.127-21.05
			c5.241,1.97,8.69,6.852,12.353,11.085c2.956,3.416,6.228,6.541,9.495,9.66c2.082,1.988,4.174,3.984,6.528,5.641
			c1.277,0.898,2.623,1.692,3.968,2.484l13.144,7.744c0.574,0.338,1.289,0.68,1.868,0.352"/>
		<path clip-path="url(#SVGID_107_)" fill-rule="evenodd" clip-rule="evenodd" fill="#FFB9A3" d="M376.186,471.81
			c0.798,1.459-0.541,3.241,0.373,4.662c0.364,0.567,1.083,1.095,0.915,1.712c-0.112,0.411-0.616,0.71-1.154,0.825
			s-1.11,0.08-1.668,0.044c-0.895-0.058-1.859-0.138-2.525-0.59c-0.641-0.435-0.858-1.127-0.844-1.774s0.225-1.284,0.291-1.93
			c0.059-0.568,0.006-1.146,0.149-1.705c0.144-0.559,0.532-1.125,1.216-1.373c0.436-0.158,0.938-0.17,1.423-0.178
			c0.642-0.013,1.283-0.023,1.925-0.034"/>
		<path clip-path="url(#SVGID_107_)" fill-rule="evenodd" clip-rule="evenodd" fill="#FFB9A3" d="M347.976,440.555
			c-0.127,0.934-1.179,1.57-1.705,2.402c-0.587,0.93-0.554,2.163-1.519,2.843c-0.653,0.461-1.645,0.518-2.424,0.218
			c-0.778-0.3-1.343-0.913-1.609-1.589c-0.191-0.486-0.236-1.027-0.018-1.507c0.462-1.018,1.906-1.463,2.703-2.326
			c0.613-0.663,1.004-1.665,2.006-1.753c0.74-0.064,1.353,0.441,1.843,0.904c0.258,0.244,0.502,0.653,0.187,0.845"/>
		<path clip-path="url(#SVGID_107_)" fill-rule="evenodd" clip-rule="evenodd" fill="#244264" d="M377.396,476.6
			c4.262,2.825,9.553,4.769,15.143,5.562c1.019,0.145,2.108,0.271,2.89,0.783c0.782,0.512,1.026,1.566,0.192,2.029
			c-0.388,0.215-0.898,0.25-1.379,0.274c-8.227,0.417-16.825-0.056-24.075-3.003c-0.458-0.187-0.934-0.401-1.163-0.751
			c-0.21-0.319-0.176-0.694-0.119-1.048c0.179-1.104,0.544-2.189,1.084-3.225c0.243-0.467,0.779-1.013,1.406-0.841
			c0.277,0.076,0.452,0.276,0.62,0.458c0.726,0.786,1.785,1.5,3.059,1.551c1.273,0.05,2.604-0.87,2.231-1.785"/>
		<path clip-path="url(#SVGID_107_)" fill-rule="evenodd" clip-rule="evenodd" fill="#244264" d="M345.486,445.363
			c0.249,1.955,0.503,3.927,1.225,5.799s1.957,3.663,3.848,4.853c0.648,0.408,1.387,0.76,1.807,1.337
			c0.419,0.578,0.334,1.481-0.411,1.753c-0.383,0.139-0.824,0.076-1.234,0.01c-2.086-0.333-4.228-0.684-6.022-1.626
			c-4.147-2.177-5.269-6.778-8.581-9.779c-0.411-0.372-0.873-0.746-1.01-1.237c-0.122-0.44,0.043-0.901,0.27-1.311
			c1.084-1.957,3.729-3.239,6.321-3.064c-0.255,0.946-0.4,2.007,0.23,2.824c0.629,0.817,2.332,1.059,2.912,0.217"/>
		<path clip-path="url(#SVGID_107_)" fill-rule="evenodd" clip-rule="evenodd" fill="#1A406B" d="M374.298,351.626
			c-5.318-0.146-10.483,1.206-15.498,2.539c-4.303,1.144-8.878,2.436-11.532,5.222c-3.502,3.676-2.549,8.697-1.218,13.104
			c2.154,7.128,4.945,14.234,9.814,20.566c4.353,5.662,10.402,10.789,12.4,17.151c1.932,6.15-0.213,12.553-0.646,18.864
			c-0.233,3.396,0.548,6.62,0.74,9.979c0.193,3.384,0.05,6.851,0.144,10.255c0.204,7.341,0.407,14.683,0.611,22.023
			c0.013,0.486,0.061,1.033,0.543,1.358c0.366,0.248,0.89,0.303,1.38,0.345c2.675,0.23,5.749,0.366,7.671-1.048
			c1.682-1.236,1.825-3.197,1.874-4.964c0.478-17.399,2.026-34.785,4.779-52.063c0.256-1.605,0.523-3.216,0.449-4.831
			c-0.115-2.534-1.06-5-1.999-7.437c-4.194-10.874-7.78-21.76-12.249-32.591c-0.345-0.836-0.695-1.716-0.451-2.572
			c0.468-1.641,2.841-2.507,4.166-3.859c1.609-1.645,5.339-5.239,3.103-6.068c-1.59-0.59,1.905-2.574-0.594-4.745
			C376.06,351.355,376.844,351.695,374.298,351.626"/>
		<path clip-path="url(#SVGID_107_)" fill-rule="evenodd" clip-rule="evenodd" fill="#FFCF4B" d="M398.325,347.478
			c-13.514-13.141-27.115-26.384-37.91-41.836c-1.137-1.628-2.291-3.471-2.055-5.442c0.139-1.165,0.764-2.28,0.616-3.443
			c-3.579,1.601-6.844,3.901-9.557,6.731c-0.933,0.973-1.81,2.021-2.401,3.232c-0.608,1.245-0.895,2.618-1.175,3.974
			c-0.857,4.143-1.714,8.285-2.571,12.427c-0.202,0.975-0.405,1.963-0.357,2.957c0.07,1.462,0.673,2.837,1.22,4.194
			c2.551,6.34,2.68,16.524,1.747,23.293c-1.037,7.518-0.69,13.673-2.145,20.453c-0.467,2.175-0.058,0.602-0.525,2.777
			c-0.281,1.313,1.189,3.036,1.338,4.37c0.157,1.407,0.791,2.727,1.61,3.881c4.202,5.926,12.552,7.359,17.569,12.611
			c0.895-2.99-0.203-6.16-0.61-9.254c-1.144-8.682,3.201-17.1,4.092-25.811c0.82-8.015-1.3-16.211,0.277-24.111
			c2.084,0.984,3.855,2.513,5.593,4.027c8.44,7.359,16.866,14.913,26.705,20.259c0.861,0.467,1.767,0.949,2.306,1.767
			c2.093-2.688,2.957-6.298,2.307-9.643c-0.073-0.377-0.182-0.773-0.184-1.159c-0.001-0.224,0.293-1.087,0.244-1.201
			c-0.144-0.338-1.329-0.788-1.699-1.071C401.178,350.254,399.749,348.862,398.325,347.478"/>
		<path clip-path="url(#SVGID_107_)" fill-rule="evenodd" clip-rule="evenodd" fill="#FFDFD7" d="M417.607,363.501
			c-1.852,0.75-4.036,0.63-5.794-0.319c-0.45-0.244-1.029-0.533-1.426-0.21c-0.356,0.291-0.266,0.849-0.139,1.291
			c0.703,2.452,1.506,4.876,2.405,7.264c-4.211-1.936-5.883-7.063-9.447-10.025c-0.449-0.373-0.945-0.731-1.201-1.255
			c-0.559-1.144,0.233-2.458,0.99-3.481c0.261-0.352,0.6-0.742,1.037-0.708c0.284,0.022,0.517,0.223,0.729,0.413
			c0.726,0.651,1.461,1.299,2.287,1.817c1.718,1.075,3.735,1.538,5.655,2.188c1.92,0.649,3.869,1.579,5.003,3.258"/>
		<path clip-path="url(#SVGID_107_)" fill-rule="evenodd" clip-rule="evenodd" fill="#FFDFD7" d="M431.249,344.521
			c-1.852,0.75-4.036,0.63-5.794-0.319c-0.45-0.244-1.029-0.533-1.426-0.21c-0.356,0.291-0.266,0.849-0.139,1.291
			c0.703,2.452,1.506,4.876,2.405,7.264c-4.211-1.936-5.883-7.064-9.447-10.026c-0.449-0.373-0.945-0.731-1.201-1.255
			c-0.559-1.143,0.233-2.458,0.99-3.481c0.261-0.351,0.6-0.742,1.037-0.708c0.284,0.022,0.517,0.223,0.729,0.413
			c0.726,0.651,1.461,1.299,2.287,1.817c1.718,1.076,3.735,1.539,5.655,2.189c1.92,0.649,3.869,1.579,5.003,3.258"/>
		<path clip-path="url(#SVGID_107_)" fill-rule="evenodd" clip-rule="evenodd" fill="#FFCF4B" d="M384.527,350.553
			c-0.366,2.302,0.27,4.633,0.9,6.877c1.474,5.251,2.947,10.502,4.421,15.753c0.963,3.432,1.976,6.964,4.194,9.755
			c0.343,0.432,0.729,0.882,0.77,1.432c0.03,0.406-0.138,0.8-0.323,1.164c-1.285,2.523-3.598,4.507-6.289,5.391
			c-1.521-4.157-3.043-8.314-4.564-12.471c-1.296-3.542-2.595-7.092-3.535-10.744c-0.656-2.549-1.136-5.142-1.559-7.74
			c-0.618-3.796-1.116-7.612-1.493-11.44c-0.159-1.615-0.254-3.398,0.716-4.703c2.401,2.388,4.684,4.893,6.839,7.505"/>
	</g>
</g>
</svg>
